<?xml version="1.0" encoding="UTF-8" standalone="no"?>
<!-- Created with Inkscape (http://www.inkscape.org/) -->

<svg
   xmlns:dc="http://purl.org/dc/elements/1.1/"
   xmlns:cc="http://creativecommons.org/ns#"
   xmlns:rdf="http://www.w3.org/1999/02/22-rdf-syntax-ns#"
   xmlns:svg="http://www.w3.org/2000/svg"
   xmlns="http://www.w3.org/2000/svg"
   xmlns:sodipodi="http://sodipodi.sourceforge.net/DTD/sodipodi-0.dtd"
   xmlns:inkscape="http://www.inkscape.org/namespaces/inkscape"
   width="210mm"
   height="297mm"
   viewBox="0 0 210 297"
   version="1.1"
   id="svg8"
   inkscape:version="0.92.4 (5da689c313, 2019-01-14)"
   sodipodi:docname="LogoNovoAzul.svg">
  <defs
     id="defs2" />
  <sodipodi:namedview
     id="base"
     pagecolor="#ffffff"
     bordercolor="#666666"
     borderopacity="1.0"
     inkscape:pageopacity="0.0"
     inkscape:pageshadow="2"
     inkscape:zoom="0.35"
     inkscape:cx="-894.28572"
     inkscape:cy="560"
     inkscape:document-units="mm"
     inkscape:current-layer="layer1"
     showgrid="false"
     inkscape:window-width="1920"
     inkscape:window-height="991"
     inkscape:window-x="-9"
     inkscape:window-y="-9"
     inkscape:window-maximized="1" />
  <metadata
     id="metadata5">
    <rdf:RDF>
      <cc:Work
         rdf:about="">
        <dc:format>image/svg+xml</dc:format>
        <dc:type
           rdf:resource="http://purl.org/dc/dcmitype/StillImage" />
        <dc:title></dc:title>
      </cc:Work>
    </rdf:RDF>
  </metadata>
  <g
     inkscape:label="Camada 1"
     inkscape:groupmode="layer"
     id="layer1">
    <path
       style="fill:#000000;stroke-width:0.70628113"
       d="m 24.546431,295.13593 c -2.101817,-0.66997 -3.530034,-5.2251 -6.076493,-19.38017 -1.055783,-5.8688 -2.29873,-12.26007 -2.762085,-14.20285 -0.989685,-4.14954 -0.742877,-6.51279 1.589717,-15.22199 0.962928,-3.59531 1.949396,-10.06528 2.221486,-14.57024 0.46619,-7.71815 0.608957,-8.25915 3.004182,-11.38411 2.200725,-2.8712 3.404696,-3.6458 9.641883,-6.20332 8.91362,-3.65496 14.09629,-7.42011 16.508579,-11.99326 1.131094,-2.14429 2.658946,-3.85346 4.037691,-4.51688 4.142188,-1.9931 4.123151,-1.86875 4.024856,-26.29964 -0.08504,-21.1144 -0.376993,-28.69281 -1.301518,-33.77479 -0.3013,-1.65618 -0.658469,-1.97364 -1.911453,-1.69893 -0.847492,0.18582 -2.200341,1.04069 -3.006308,1.89975 -1.144404,1.21976 -1.908043,1.46877 -3.485943,1.13674 -1.20832,-0.25425 -3.382669,0.011 -5.409213,0.65985 -3.103109,0.99359 -3.58688,0.9991 -5.740507,0.0653 -1.413201,-0.6127 -2.553871,-1.7247 -2.858101,-2.78629 -0.278468,-0.97166 -1.142604,-2.83211 -1.920282,-4.13435 -0.777679,-1.30221 -1.748535,-3.48482 -2.157457,-4.85023 C 28.257922,125.58486 20.360324,107.23481 16.187124,98.236577 15.197363,96.102461 13.628791,92.61029 12.701411,90.476174 9.7330842,83.645323 8.8817229,82.385646 6.7085607,81.60905 1.7660155,79.842808 0.58502846,77.489366 3.3866076,74.989123 4.8803676,73.656052 4.878069,73.615106 3.0753873,69.450494 2.0765473,67.142895 0.80730199,64.319524 0.25484563,63.176325 -1.2160066,60.132662 0.01878261,57.77199 3.8277255,56.345689 8.888159,54.450764 9.1396018,54.247875 9.9696644,51.389602 10.409058,49.876599 11.49677,48.144308 12.3868,47.540067 c 0.89005,-0.60424 2.530083,-2.309619 3.644532,-3.789729 2.589132,-3.438648 4.471893,-4.269684 8.4979,-3.75088 1.756024,0.226289 6.438506,0.573887 10.405502,0.772441 7.116723,0.356201 7.28144,0.330824 12.376559,-1.906926 2.840097,-1.247364 8.58093,-3.340963 12.757403,-4.652444 6.293153,-1.976157 7.876703,-2.257479 9.246772,-1.642731 1.228218,0.5511 2.638067,0.557544 5.484465,0.02507 4.70359,-0.879895 7.147599,-2.159668 8.089055,-4.235724 0.635796,-1.402013 1.182848,-1.583651 4.786525,-1.589245 2.703948,-0.0043 5.452684,-0.54649 8.194877,-1.616751 2.2694,-0.885738 5.04626,-1.619688 6.1708,-1.630999 1.12455,-0.01123 2.71842,-0.447835 3.54193,-0.97005 0.82351,-0.522216 2.93072,-0.949482 4.68271,-0.949482 3.93953,0 25.77658,-6.597568 27.23531,-8.228533 0.63484,-0.709797 0.88072,-2.105545 0.64356,-3.6533808 -0.21107,-1.3776203 -0.18847,-2.9315484 0.0503,-3.4531755 0.45078,-0.9848722 11.00849,-5.33803089 13.71461,-5.65481431 0.84849,-0.0993322 2.47512,-0.54825034 3.61472,-0.99760936 2.66449,-1.05062763 4.36689,-0.47604829 5.31001,1.79217517 0.94012,2.260994 5.71597,4.6224277 7.06355,3.4925994 1.78801,-1.4990574 5.04453,-0.873062 6.98972,1.3436123 2.04935,2.335404 4.69281,7.0102811 5.4439,9.6273971 0.37743,1.315174 1.10656,1.802393 3.18694,2.129605 3.26951,0.514244 4.49825,2.198645 3.81882,5.235024 -0.27934,1.248402 -0.15724,2.620432 0.27256,3.062763 0.4282,0.440709 1.14287,1.819839 1.58812,3.064737 1.27835,3.574271 4.38496,10.526846 5.43152,12.15574 0.52481,0.816855 1.57034,3.43599 2.32339,5.8203 0.75305,2.384311 2.37442,6.081201 3.60307,8.215304 1.22864,2.13411 2.64785,5.044272 3.1538,6.467016 0.50593,1.422743 2.0333,5.060421 3.39409,8.083751 3.04921,6.77442 3.74667,10.935588 1.97251,11.768005 -0.68405,0.320967 -1.24375,1.253131 -1.24375,2.071504 0,1.089003 -1.0478,2.034063 -3.908,3.524717 -2.14941,1.120228 -4.19237,2.036761 -4.53995,2.036761 -1.04791,0 -4.86007,1.80504 -5.42197,2.567262 -0.2887,0.39165 -1.88524,0.874316 -3.5479,1.072626 -4.70853,0.561592 -13.60978,2.927857 -15.8288,4.207843 -1.10378,0.636707 -3.56718,1.450806 -5.47425,1.809118 -1.90705,0.358323 -5.08248,1.231916 -7.0565,1.941326 l -3.58909,1.28988 v 34.26764 c 0,23.94994 0.26054,34.7471 0.86538,35.86003 0.95412,1.75569 2.67469,2.32654 7.05229,2.33987 3.99655,0.011 8.08391,3.16527 9.11666,7.03293 0.85905,3.21709 -0.94617,12.82883 -3.01496,16.05288 -0.49852,0.77691 -0.90641,2.14205 -0.90641,3.03366 0,0.89161 -0.30865,1.78104 -0.68589,1.97651 -0.37725,0.19547 -0.92495,1.15844 -1.21713,2.13994 -0.29216,0.9815 -0.97569,2.22106 -1.51893,2.75459 -0.54322,0.53353 -1.34846,1.84309 -1.78937,2.91015 -0.44093,1.06706 -1.04828,2.45018 -1.34963,3.07365 -0.41501,0.85856 0.008,1.32922 1.7384,1.94011 3.36396,1.18668 12.29085,8.43975 13.58599,11.03857 0.61608,1.23619 3.56123,4.40217 6.54481,7.03551 4.85095,4.28154 5.47943,5.13404 5.94251,8.06084 0.34957,2.20936 0.12872,4.40502 -0.67949,6.75653 -2.52166,7.33647 -4.26912,13.30554 -4.8063,16.41759 -0.30698,1.77842 -2.07059,5.68325 -3.91913,8.67738 -1.84852,2.99413 -3.36097,6.20986 -3.36097,7.14603 0,0.93619 -0.31096,1.97862 -0.69104,2.31651 -0.38005,0.33791 -1.07469,3.06411 -1.54362,6.05822 -0.46891,2.99409 -0.97601,5.5473 -1.12686,5.67376 -0.58747,0.49254 -150.618696,0.66883 -152.155991,0.17881 z m 3.766672,-2.27409 c 1.157792,-0.37249 0.932033,-1.78022 -1.394968,-8.69897 -1.230996,-3.65998 -5.549185,-13.62572 -6.106582,-14.09305 -0.682544,-0.57224 -0.483657,2.37694 0.699514,10.37341 1.766808,11.94104 2.743564,13.7243 6.802036,12.41861 z m 147.157557,-5.46712 c 0.59439,-3.27718 2.25497,-7.46747 5.12368,-12.92904 2.33436,-4.44424 4.57231,-9.78817 4.97325,-11.87539 0.40091,-2.08722 1.75637,-6.48403 3.01211,-9.77069 3.04509,-7.96992 3.05308,-11.89027 0.03,-14.7239 -2.17322,-2.03703 -2.46753,-2.11312 -8.29204,-2.14392 -11.61167,-0.0614 -11.82399,-0.0962 -11.82399,-1.94114 0,-2.03346 5.01123,-6.1031 7.52067,-6.10758 1.96862,-0.004 2.06515,-0.21846 0.9104,-2.02747 -0.62092,-0.97272 -1.07496,-1.1188 -1.83455,-0.59028 -0.72676,0.50569 -1.62967,0.50273 -3.22446,-0.01 -1.23617,-0.39789 -5.2829,-0.61839 -9.15722,-0.49893 l -6.94215,0.21401 -0.23623,-2.73224 c -0.2154,-2.49111 0.0638,-2.97622 3.16242,-5.49694 3.51286,-2.85763 7.43289,-9.30707 11.02565,-18.14004 1.90892,-4.69317 3.91084,-14.4865 3.10021,-15.16613 -0.27004,-0.22641 -2.39003,-0.33791 -4.71108,-0.24776 -5.78852,0.2248 -7.02227,-0.23257 -9.25891,-3.43233 l -1.9368,-2.7708 0.19872,-40.34488 0.19873,-40.344868 2.0836,-0.837204 c 7.07676,-2.843447 43.30804,-13.746796 44.56683,-13.411834 1.73789,0.462443 4.08765,-2.086903 4.02852,-4.37075 -0.0206,-0.794865 -1.59478,-4.93741 -3.49821,-9.205616 -1.90344,-4.268218 -5.1023,-11.54361 -7.10857,-16.167504 -4.18086,-9.635771 -7.97899,-18.143574 -10.8773,-24.365142 -1.89589,-4.069738 -2.11733,-4.283633 -3.85984,-3.728198 -1.0167,0.324083 -2.52927,1.120951 -3.36128,1.770817 -1.36358,1.065078 -12.30764,4.720659 -48.54937,16.216689 -6.55597,2.079579 -12.03793,4.0778 -12.18213,4.44049 -0.14423,0.36269 1.40159,1.470318 3.43509,2.461398 9.38136,4.572273 15.86905,11.110357 16.07399,16.198841 0.0744,1.844081 0.72654,3.604608 1.77667,4.795434 2.08935,2.36933 2.08414,3.027201 -0.0284,3.589355 -1.23684,0.3291 -2.06107,0.0624 -3.08541,-0.998121 -1.08497,-1.123367 -1.39773,-1.21409 -1.39773,-0.405487 0,2.13773 -1.23425,0.853544 -3.83717,-3.992411 C 124.73587,55.733962 108.70754,47.97023 94.611159,50.442958 88.3777,51.536405 74.804966,57.665538 69.70883,61.688284 c -4.193979,3.310629 -8.13508,9.642524 -8.834555,14.193901 -0.714089,4.646472 -1.114334,5.864408 -1.927196,5.864408 -2.036907,0 -0.225089,-8.881608 2.86963,-14.067092 1.11489,-1.868077 1.825762,-3.565297 1.57972,-3.771581 -0.246043,-0.206273 -5.423024,1.229965 -11.504381,3.191623 -32.072866,10.345774 -38.154875,12.125986 -41.498624,12.14671 -3.4106324,0.02113 -3.4272963,0.032 -1.7060345,1.120595 1.6966305,1.072956 3.2856585,4.315027 11.2945565,23.044202 1.825167,4.26821 4.887671,11.25258 6.805578,15.52079 1.917907,4.26823 3.738306,8.48795 4.045332,9.37717 0.993746,2.87821 3.451889,6.46714 4.425523,6.46134 0.521696,-0.004 5.28738,-1.43472 10.590408,-3.18137 5.598945,-1.84406 9.936,-2.9374 10.343312,-2.60745 0.385765,0.31253 0.935519,6.90966 1.221688,14.66028 l 0.520297,14.09204 0.128135,-10.08794 c 0.161844,-12.73239 -0.514915,-19.98361 -1.864854,-19.98361 -0.547418,0 -5.434935,1.45126 -10.861137,3.22503 -10.87424,3.55468 -10.622471,3.5736 -12.789657,-0.96158 -1.695232,-3.54755 -20.326141,-46.1178 -21.085642,-48.179157 -0.276056,-0.749241 5.370274,-2.783535 24.804163,-8.936672 13.83885,-4.381643 25.306168,-7.845373 25.482915,-7.697193 0.176784,0.148144 -0.591892,1.941801 -1.708046,3.985829 -2.601466,4.764061 -3.660525,14.58814 -1.572633,14.58814 1.158215,0 1.280968,3.475344 1.444689,40.903773 l 0.178892,40.90378 0.399593,-41.3888 0.399575,-41.388811 1.720341,-2.022034 c 3.672879,-4.316993 4.382544,-4.409743 36.487974,-4.768298 15.923638,-0.177843 32.652208,-0.174058 37.174598,0.0085 8.84622,0.356944 10.66963,0.975834 14.04619,4.767541 1.58522,1.780115 1.59038,2.032903 1.59038,78.024962 0,41.93146 0.23593,75.74062 0.5243,75.13143 0.28836,-0.60919 0.54869,-2.78094 0.57851,-4.82613 0.0526,-3.61246 1.03971,-4.91578 1.93392,-2.55364 0.24257,0.64067 1.81765,2.29189 3.50022,3.66938 2.79111,2.28502 3.23341,2.43797 5.04676,1.74528 1.09313,-0.41758 2.23452,-0.75924 2.53642,-0.75924 0.79425,0 0.45481,8.74293 -0.50739,13.06859 -0.88949,3.99875 -3.11808,8.16748 -5.10568,9.55049 -1.06191,0.73887 -1.72412,0.64353 -4.4493,-0.6406 -2.47678,-1.16706 -4.2479,-1.48447 -7.82236,-1.40187 -2.54137,0.0586 -5.29779,0.28693 -6.12536,0.50714 -1.32626,0.35293 -1.44016,0.18102 -0.96051,-1.44954 0.2993,-1.01749 1.27464,-3.08472 2.16741,-4.59386 1.70877,-2.88855 1.6002,-3.68612 -0.41364,-3.03823 -1.30212,0.41892 -6.96102,7.35607 -8.07411,9.89789 -0.62791,1.43392 -0.75034,1.46119 -1.96977,0.43882 -0.71514,-0.59955 -1.30024,-1.92276 -1.30024,-2.94043 0,-2.09408 -2.42039,-3.20529 -4.23359,-1.94365 -0.82844,0.57643 -1.88692,0.44597 -4.62722,-0.57029 -4.34355,-1.61089 -9.93701,-2.43915 -20.06488,-2.9712 -8.241914,-0.43298 -20.078559,-2.07588 -21.98352,-3.05127 -0.707711,-0.36238 10.524827,-0.48842 28.92569,-0.32454 19.58005,0.17437 25.36996,0.10258 16.58406,-0.20574 -7.42426,-0.2605 -22.38491,-0.50908 -33.245863,-0.55241 -23.635515,-0.0943 -25.574108,-0.46269 -29.341182,-5.57574 -1.719384,-2.33374 -1.903237,-1.66474 -0.270137,0.983 0.640771,1.03885 1.85564,2.19869 2.699741,2.57743 2.160139,0.96926 1.909116,1.81716 -0.427116,1.44274 -1.309831,-0.20993 -2.468659,-1.14732 -3.486766,-2.82048 -0.838702,-1.37832 -1.778569,-2.50603 -2.088582,-2.50603 -0.310015,0 -1.2739,1.23547 -2.141963,2.74548 -0.868043,1.51004 -2.169331,2.84094 -2.891733,2.95757 -2.087241,0.33702 -1.658093,-3.59031 1.000602,-9.15711 1.272732,-2.66483 2.314053,-5.68686 2.314053,-6.71561 0,-1.02873 0.489404,-2.43158 1.087578,-3.11743 1.030749,-1.18183 1.131343,-1.12917 1.925109,1.00813 0.775495,2.08803 0.809702,1.99161 0.461842,-1.30174 -0.206645,-1.95626 -0.458049,-15.34295 -0.5587,-29.74819 l -0.182913,-26.19134 -0.402237,20.37102 c -0.221219,11.20409 -0.657817,19.64351 -0.970205,18.75432 -0.31239,-0.88921 -0.57272,-10.17746 -0.578504,-20.64053 -0.0057,-10.46303 -0.177551,-18.88373 -0.38159,-18.71263 -0.204078,0.17109 -0.419265,10.33236 -0.478199,22.58059 -0.09692,20.12542 -0.241656,22.48743 -1.504428,24.53296 -2.730444,4.42292 -7.794516,7.28588 -11.762527,6.64993 -1.145209,-0.18354 -2.082184,-0.11674 -2.082184,0.1483 0,0.26509 1.343292,2.13187 2.985087,4.14841 4.5527,5.59186 5.293757,7.10917 5.866381,12.01126 0.290823,2.4898 0.704225,5.05314 0.918684,5.69633 0.652626,1.95731 3.551734,1.04835 5.271215,-1.65271 1.758686,-2.76265 3.471079,-3.18114 3.471079,-0.84828 0,0.86821 0.300323,1.7342 0.667394,1.9244 0.367072,0.19019 5.139805,0.94732 10.606075,1.68251 5.46629,0.73517 12.71555,1.93529 16.109499,2.66696 3.430248,0.73947 10.789734,1.57508 16.57104,1.88148 9.98706,0.52931 10.64891,0.65454 16.66091,3.15218 3.95268,1.64211 8.78893,4.45483 13.11875,7.62975 6.23402,4.57121 15.24278,9.23233 17.84367,9.23233 1.29791,0 5.78839,-4.20262 6.63151,-6.20639 0.56078,-1.33274 1.1105,-1.49934 4.82476,-1.46214 2.30552,0.0231 4.3842,0.30288 4.61928,0.62175 0.23504,0.31888 0.0327,0.57979 -0.44961,0.57979 -0.48234,0 0.36494,1.21644 1.88285,2.70319 1.51792,1.48678 2.75986,2.94184 2.75986,3.2335 0,0.29168 0.78098,0.53427 1.73553,0.53913 3.19947,0.0164 5.20662,0.7692 5.20662,1.95309 0,1.11523 -1.01703,3.32471 -4.45517,9.67868 -1.55003,2.86459 -3.5277,13.33881 -2.72432,14.42864 0.85128,1.15484 1.73471,-0.6817 2.5862,-5.37648 z m -23.68398,-22.9916 c -0.78157,-1.70761 3.62035,-7.64208 4.64127,-6.25717 0.44123,0.59854 -2.98663,7.26262 -3.73572,7.26262 -0.24494,0 -0.65245,-0.45245 -0.90555,-1.00545 z m 23.69512,-2.33566 c -1.74975,-1.57465 -2.02947,-2.4792 -0.7666,-2.4792 1.54251,0 3.80605,1.33696 3.80605,2.24804 0,1.59806 -1.40203,1.70468 -3.03945,0.23116 z m -7.74766,-13.67295 c -0.008,-1.47961 0.29621,-2.30366 0.75954,-2.06359 0.97488,0.50514 0.97488,2.2921 0,3.55686 -0.55505,0.72007 -0.75079,0.33529 -0.75954,-1.49327 z m 7.20734,-0.39684 c -3.24238,-1.65759 -3.87694,-2.64509 -1.96863,-3.06348 0.85195,-0.18677 1.72337,-0.89862 1.93646,-1.58187 0.43143,-1.38311 4.82948,-3.16506 7.81181,-3.16506 2.07231,0 3.83681,1.73688 4.67654,4.60333 1.1092,3.78638 -7.15894,5.91518 -12.45618,3.20708 z m -22.05405,-96.21552 c -0.20421,-68.315366 -0.22367,-69.090936 -1.78861,-71.329782 -0.87016,-1.2449 -3.03959,-2.940044 -4.82093,-3.766977 -2.5846,-1.199814 -3.23882,-1.862863 -3.23882,-3.282432 0,-2.72195 -3.66536,-10.912507 -6.36999,-14.234286 -3.21144,-3.944244 -8.58838,-8.169376 -13.09971,-10.293622 -2.0181,-0.950255 -3.66914,-1.873246 -3.66896,-2.051089 1.6e-4,-0.177841 4.9461,-1.893476 10.99096,-3.812522 39.27142,-12.467373 47.5526,-15.211611 50.11779,-16.608141 l 2.8736,-1.564434 1.16807,1.893794 c 1.17822,1.910213 3.59109,7.331725 10.38089,23.324803 2.03856,4.801748 4.30477,9.894512 5.03604,11.317255 2.32422,4.522008 6.5935,15.098649 6.5935,16.334647 0,1.536559 -1.45845,2.743004 -3.31595,2.743004 -0.80558,0 -2.55849,0.425575 -3.89532,0.945744 -4.0539,1.577347 -41.10995,13.281655 -42.04995,13.281655 -0.55625,0 -0.87665,-1.404206 -0.87665,-3.842033 0,-2.113111 -0.34709,-4.021878 -0.77133,-4.241718 -0.51154,-0.265049 -0.7632,14.916154 -0.74712,45.069164 0.022,41.39739 0.15304,46.09238 1.46305,52.43244 1.77313,8.5818 2.85691,10.17394 6.9254,10.17394 3.98792,0 4.25399,1.16873 1.71432,7.5308 l -2.02782,5.07985 -3.27825,0.19887 c -2.51177,0.1524 -3.27825,0.46231 -3.27825,1.32572 0,0.61978 0.34425,1.41549 0.76498,1.76823 0.50577,0.42403 0.46869,1.39926 -0.10942,2.87783 -1.48635,3.80176 -3.20828,7.13401 -3.86135,7.47239 -0.34305,0.17779 -0.71667,-30.75663 -0.83023,-68.7431 z M 61.572224,77.322843 C 63.184638,67.132124 69.048012,61.245844 83.900072,54.907714 l 9.092447,-3.880201 h 7.475031 c 6.85154,0 7.89767,0.173406 12.54221,2.079017 8.13464,3.337555 14.27503,8.523039 17.29079,14.601865 l 1.21721,2.453483 -1.94722,-1.069696 c -2.83598,-1.55793 -5.6585,-0.752892 -7.03347,2.006036 -0.95004,1.906326 -1.48886,2.238845 -3.61308,2.229772 -1.94932,-0.0085 -3.25202,-0.666407 -5.94317,-3.002142 -4.20682,-3.651245 -7.1515,-4.747587 -12.75176,-4.747587 -5.600204,0 -8.866193,1.206677 -11.936949,4.410304 -2.015143,2.102364 -3.268592,2.748036 -6.465996,3.330754 C 70.56192,75.372152 66.840259,76.490231 63.7849,78.739346 l -2.758045,2.030265 z m 62.324666,-5.762597 c 0.45284,-3.299638 6.80056,-2.429718 6.80056,0.931969 0,0.573889 -1.1342,0.846448 -3.52232,0.846448 -3.38747,0 -3.51296,-0.06814 -3.27824,-1.778417 z m 22.07305,169.011814 c 2.43414,-1.06182 6.00342,-4.10376 5.4044,-4.60598 -0.22701,-0.19035 -0.98047,0.3803 -1.6743,1.26809 -1.50206,1.92199 -3.76042,3.02959 -7.43233,3.64517 -2.44499,0.40989 -2.49596,0.45961 -0.54019,0.52696 1.18773,0.0408 3.09683,-0.3345 4.24242,-0.83424 z m -1.41441,-2.16422 c 4.34041,-1.83573 5.79676,-4.69156 5.80463,-11.38253 l 0.008,-5.7249 -16.96972,0.0975 c -15.20962,0.0874 -20.44082,0.35521 -20.44082,1.04648 0,0.12349 0.86776,1.29661 1.92837,2.60695 2.86641,3.54129 2.68738,7.55554 -0.44639,10.00986 -2.28381,1.78864 -6.42539,3.17478 -9.50837,3.18234 -2.36553,0.006 -6.428442,-3.02358 -7.41444,-5.52834 -1.174815,-2.98451 -0.423395,-6.22051 2.006687,-8.64179 l 1.931513,-1.9245 -2.855542,-0.44914 c -4.761874,-0.74896 -24.268389,0.11308 -27.402429,1.21085 -3.355069,1.1753 -3.675847,1.55546 -3.711319,4.39821 -0.0611,4.89129 1.347524,8.30173 4.270018,10.33872 1.407953,0.98134 16.551382,1.48637 52.772172,1.75993 15.19102,0.11467 17.68882,-0.01 20.02891,-0.99965 z m -34.715,-4.02723 c 2.19446,-0.98465 3.11936,-3.94809 1.9561,-6.26757 -1.56922,-3.12898 -5.59607,-3.77967 -8.62529,-1.39375 -4.689335,3.6935 0.9849,10.21186 6.66919,7.66132 z M 61.820182,229.0317 c -0.183871,-0.8003 -0.334282,-0.14554 -0.334282,1.45505 0,1.60059 0.150353,2.25538 0.334282,1.4551 0.183871,-0.8003 0.183871,-2.10986 0,-2.91015 z m 86.326848,-11.23991 c 0.54406,-1.81744 -0.28178,-31.97685 -0.88957,-32.48642 -0.1989,-0.16674 -0.36164,1.18323 -0.36164,2.99994 0,3.88279 -0.73159,4.47868 -3.64212,2.96651 -2.78571,-1.44732 -7.15678,-4.8556 -7.15678,-5.58041 0,-1.58727 -6.41555,-4.53668 -7.63832,-3.51151 -1.46307,1.22663 -0.94058,4.03175 1.04181,5.59315 1.0386,0.81803 2.12002,2.39659 2.40311,3.50789 0.28313,1.11132 1.04491,2.89362 1.69287,3.96067 0.64795,1.06706 1.47564,2.44541 1.83932,3.06305 0.36366,0.61763 0.66121,1.70893 0.66121,2.42512 0,0.95786 0.5099,1.30218 1.92835,1.30218 3.27289,0 2.12766,1.0947 -1.59245,1.52221 -1.93646,0.22252 -15.56046,0.24387 -30.27555,0.0475 -14.715088,-0.19643 -29.099287,-0.32353 -31.964876,-0.28246 -4.946319,0.071 -5.249073,-0.011 -5.978084,-1.61865 -0.975281,-2.15064 0.284962,-4.41301 2.177684,-3.90938 1.284855,0.3419 5.539493,-3.29437 5.539493,-4.7344 0,-0.35047 1.041322,-1.25888 2.314053,-2.01867 1.451699,-0.86666 2.314054,-1.95008 2.314054,-2.90725 0,-0.91111 0.854572,-2.06133 2.121215,-2.85511 1.166687,-0.73112 2.468338,-1.65661 2.892577,-2.05663 0.424251,-0.40001 2.073007,-1.79364 3.663922,-3.09698 2.178651,-1.78483 2.892577,-2.89255 2.892577,-4.48818 0,-1.42904 0.627563,-2.60614 1.928358,-3.61687 2.024325,-1.5729 2.52578,-2.96677 1.067294,-2.96677 -1.101082,0 -10.159367,6.98209 -10.828939,8.34692 -0.277994,0.56662 -1.23255,1.53665 -2.12122,2.15562 -0.888693,0.61897 -1.615784,1.49373 -1.615784,1.94391 0,0.45017 -1.053236,1.20938 -2.340562,1.68708 -1.287287,0.47776 -4.116372,2.13949 -6.286852,3.69276 -2.170462,1.55329 -4.241193,2.67135 -4.601598,2.48461 -0.360427,-0.18675 -0.655309,-2.64046 -0.655309,-5.45269 0,-4.82497 0.132349,-5.22655 2.346921,-7.12601 1.613007,-1.38342 2.200723,-2.39906 1.879409,-3.24783 -0.403846,-1.06677 -0.169506,-1.18499 1.7204,-0.86809 1.612624,0.2704 2.569615,0.0131 3.639608,-0.97801 0.798421,-0.73968 2.211852,-1.34487 3.140955,-1.34487 0.929104,0 2.317542,-0.58203 3.085415,-1.2934 0.767863,-0.71137 2.210081,-1.2934 3.204958,-1.2934 0.99484,0 2.51947,-0.65479 3.388038,-1.45509 0.86858,-0.80027 2.257016,-2.04732 3.085405,-2.77121 0.828401,-0.72387 1.508563,-1.59691 1.51146,-1.94011 0.0035,-0.34317 1.257812,-1.33924 2.788692,-2.21349 1.530881,-0.87423 3.309827,-2.51503 3.953226,-3.64619 1.12525,-1.97835 1.08514,-2.14556 -1.053166,-4.39241 -1.222629,-1.28468 -2.604908,-2.33578 -3.071754,-2.33579 -0.466858,0 -1.651137,-0.87772 -2.63174,-1.95047 -1.131481,-1.23782 -2.245276,-1.82743 -3.048392,-1.61373 -1.950617,0.51906 -4.203211,-1.24349 -4.238488,-3.31641 -0.02428,-1.42921 -0.435592,-1.89789 -1.808582,-2.06108 -1.043605,-0.12397 -2.077722,-0.87413 -2.505456,-1.81733 -0.892563,-1.96823 -2.576261,-1.33279 -1.956251,0.73828 0.299307,0.9998 0.04922,1.60535 -0.771933,1.86955 -2.295781,0.73861 -2.631154,0.38301 -2.631154,-2.78983 0,-3.90191 0.553719,-5.22029 2.203731,-5.24706 0.697043,-0.011 1.878644,-0.40952 2.625771,-0.8849 1.243141,-0.79101 1.253098,-0.93765 0.117407,-1.72786 -0.87009,-0.60543 -1.11776,-1.50041 -0.828584,-2.99439 0.325276,-1.68054 0.08887,-2.27604 -1.118663,-2.81785 -1.000142,-0.44878 -1.377672,-1.09226 -1.088707,-1.85561 0.526502,-1.39076 -0.776204,-4.57293 -1.872054,-4.57293 -1.574626,0 -3.160109,3.78808 -2.667182,6.37255 0.296185,1.55286 0.156099,2.6869 -0.365443,2.95712 -0.592543,0.30702 -0.516275,0.86397 0.25468,1.85963 0.928759,1.19946 0.946858,2.03424 0.115871,5.34703 -0.612519,2.44219 -0.731288,4.49978 -0.314266,5.4449 1.055017,2.39111 -0.414744,3.02255 -3.661693,1.57312 -1.531702,-0.68376 -2.998072,-1.5264 -3.258613,-1.87253 -0.260561,-0.34615 -0.381705,-2.89253 -0.269237,-5.65863 0.131774,-3.24271 -0.0883,-5.02929 -0.619454,-5.02929 -0.564579,0 -0.823492,5.64882 -0.822573,17.94593 0.0015,19.54691 0.871107,58.43493 1.283477,57.39451 0.169122,-0.42689 8.315503,-0.4755 23.97614,-0.14308 28.873458,0.613 49.009078,0.35978 50.447198,-0.63441 0.57273,-0.39591 2.25619,-0.63848 3.74104,-0.53901 l 2.69975,0.18085 v 7.68153 7.68155 l -39.72463,0.16918 c -36.660652,0.15614 -39.798964,0.0843 -40.688784,-0.93198 -0.855441,-0.97695 -0.964193,-0.98387 -0.964193,-0.0614 0,0.57186 0.433878,1.18654 0.964193,1.36593 0.530294,0.17941 18.920435,0.34917 40.866934,0.37725 l 39.90277,0.0512 0.50922,-1.70106 z m -10.12176,-22.22682 c -0.26218,-0.35568 -0.10918,-0.64671 0.34017,-0.64671 0.44928,0 0.81687,0.29103 0.81687,0.64671 0,0.35569 -0.15303,0.64669 -0.34014,0.64669 -0.18713,0 -0.55469,-0.291 -0.8169,-0.64669 z M 66.675273,193.9685 c 0,-0.53798 0.457666,-0.80249 1.055649,-0.61012 0.626329,0.20151 1.224369,-0.20125 1.470488,-0.99034 0.527824,-1.6922 1.852346,-1.71477 2.485455,-0.0422 0.690034,1.82274 -0.124495,2.59258 -2.743066,2.59258 -1.480677,0 -2.268526,-0.32984 -2.268526,-0.94976 z m 6.630959,-23.5238 c -0.26692,-0.36209 -0.109561,-0.85311 0.349949,-1.09113 1.185928,-0.61452 1.951099,0.2272 0.961088,1.05723 -0.553987,0.46445 -0.985433,0.47561 -1.311037,0.0338 z m -3.809364,-3.77126 c -1.088861,-0.91292 -0.473851,-2.79676 0.913071,-2.79676 1.392038,0 3.207494,-3.44991 3.207494,-6.09518 0,-0.60217 0.347115,-0.915 0.771357,-0.69518 0.424244,0.21984 0.771339,1.53535 0.771339,2.9234 0,2.36578 0.180998,2.56573 2.892577,3.19517 6.933601,1.6095 6.050045,3.20991 -1.595827,2.89059 -2.599629,-0.10868 -5.114905,0.0728 -5.589522,0.40304 -0.474636,0.33023 -1.091331,0.40895 -1.370489,0.17492 z m 8.748672,-9.91047 c 0,-0.35568 0.347114,-0.64671 0.771357,-0.64671 0.424244,0 0.771358,0.29103 0.771358,0.64671 0,0.35569 -0.347114,0.64671 -0.771358,0.64671 -0.424243,0 -0.771357,-0.29102 -0.771357,-0.64671 z m -10.027572,-0.60853 c 0,-0.37667 0.347115,-0.68486 0.771359,-0.68486 0.988401,0 0.988401,0.4579 0,0.97006 -0.424244,0.21981 -0.771359,0.0915 -0.771359,-0.2852 z m 20.321317,-0.38942 c -0.718231,-1.56922 0.123153,-1.72119 1.657915,-0.29941 1.277961,1.18393 1.286674,1.29736 0.09957,1.29736 -0.715428,0 -1.506323,-0.44908 -1.757543,-0.99795 z m -6.051304,-0.94215 c 0.262186,-0.35569 0.803339,-0.6467 1.202551,-0.6467 0.399213,0 0.72583,0.29101 0.72583,0.6467 0,0.35569 -0.541153,0.64671 -1.202551,0.64671 -0.661397,0 -0.988038,-0.29102 -0.72583,-0.64671 z m 12.263688,-1.00016 c -0.598784,-2.0002 -0.135608,-2.47996 1.876919,-1.94441 2.89891,0.77139 2.97629,3.59128 0.09863,3.59128 -0.945255,0 -1.66114,-0.5968 -1.975491,-1.64687 z m -26.632128,0.22996 c -0.669578,-1.35924 -1.009586,-8.21691 -0.431446,-8.70161 0.173719,-0.1457 1.318604,0.0862 2.544122,0.51537 2.106815,0.73775 2.133649,0.79403 0.492639,1.03313 -2.149297,0.31316 -2.300665,1.45633 -0.192834,1.45633 2.021661,0 1.982818,1.69709 -0.05975,2.61364 -0.895795,0.40192 -1.4209,1.11584 -1.190698,1.61878 0.331101,0.72343 -0.815276,2.16814 -1.161968,1.46436 z m 5.497892,-0.90709 c 0,-0.56683 0.688712,-1.18158 1.530458,-1.36613 1.526357,-0.33466 1.526357,-0.33991 0,-1.96677 -0.841746,-0.89717 -1.530458,-2.15683 -1.530458,-2.79924 0,-0.64241 -0.347114,-1.34789 -0.771358,-1.56771 -1.93187,-1.00102 -0.959134,-1.53829 6.33824,-3.50079 2.982772,-0.80216 6.003381,-0.13377 6.003381,1.32841 0,0.38076 0.867782,1.55689 1.928392,2.61367 1.06061,1.05677 1.928381,2.50834 1.928381,3.22573 0,0.76916 0.645905,1.44593 1.574238,1.64947 0.865848,0.18983 1.453736,0.64823 1.306459,1.01869 -0.353838,0.88995 -6.82727,0.80646 -8.879812,-0.11455 -2.289191,-1.02715 -3.503658,-0.9018 -2.951451,0.30466 0.727361,1.58917 -0.204519,2.29596 -1.977992,1.50023 -1.141685,-0.51228 -1.81199,-0.51277 -2.421503,-0.001 -1.203607,1.00931 -2.076975,0.87306 -2.076975,-0.32379 z m -7.713518,-11.21854 c 0,-0.37667 0.347114,-0.68486 0.771358,-0.68486 0.988382,0 0.988382,0.4579 0,0.97006 -0.424244,0.21981 -0.771358,0.0915 -0.771358,-0.2852 z m 9.432999,-13.74013 c 0.476742,-1.1991 2.137288,-1.39801 2.137288,-0.25597 0,0.56316 -0.549602,1.02393 -1.221305,1.02393 -0.671741,0 -1.083919,-0.34557 -0.915983,-0.76796 z m 72.400926,52.34229 c 0.45382,-5.19166 0.60062,-24.49584 0.23129,-30.4154 -0.43885,-7.03395 -0.58525,-7.59 -1.90566,-7.23865 -1.09691,0.29189 -1.55598,-0.0425 -1.96944,-1.43456 -0.64486,-2.17113 -2.50014,-3.50095 -4.26478,-3.05691 -1.75807,0.44236 -5.57131,-1.61695 -8.73865,-4.7193 -1.84872,-1.81079 -3.70732,-2.83608 -6.20314,-3.42194 -4.21461,-0.98934 -5.44701,-2.3508 -6.64142,-7.33708 -0.7872,-3.28631 -0.73708,-3.78546 0.45337,-4.51527 1.1645,-0.71389 1.19172,-0.9226 0.20951,-1.60602 -1.19731,-0.8331 -3.6385,-0.4017 -3.6385,0.64297 0,0.34161 -0.60745,0.46495 -1.34986,0.27412 -2.09445,-0.53835 -7.13169,0.66029 -8.32547,1.9811 -0.59099,0.65388 -1.08557,1.69086 -1.09908,2.30443 -0.0199,0.90742 0.42647,1.03992 2.39284,0.71021 1.86928,-0.31345 2.33673,-0.1998 2.06172,0.50119 -0.19558,0.4986 -1.24067,0.99517 -2.32242,1.10347 -2.93197,0.29362 -5.58787,2.90322 -4.5729,4.49324 0.55443,0.86855 0.55409,1.46263 -7.6e-4,1.92811 -0.55572,0.4659 -0.5446,0.80638 0.0362,1.10729 0.47381,0.24553 0.83855,-0.0275 0.83855,-0.6276 0,-0.58416 0.43389,-0.94006 0.96419,-0.79086 0.53031,0.14912 0.96567,0.80436 0.96746,1.45597 0.006,2.15157 1.8391,1.74513 3.04528,-0.67517 0.87566,-1.75708 1.51494,-2.27275 2.44617,-1.97314 0.69338,0.22306 2.37842,0.0668 3.7445,-0.34742 3.63982,-1.10349 6.57348,-0.30816 6.57348,1.78207 0,1.46325 -0.24331,1.62334 -1.92838,1.26876 -1.11202,-0.23399 -1.92837,-0.12675 -1.92837,0.25324 0,0.36246 -0.69422,0.65902 -1.54271,0.65902 -1.84371,0 -1.99063,0.82336 -0.35057,1.96454 0.65568,0.45621 1.00495,1.23842 0.77622,1.73821 -0.2892,0.63184 -0.006,0.80095 0.92908,0.55501 0.93281,-0.24533 1.63682,0.17105 2.29717,1.35867 1.00767,1.81223 0.89139,2.06589 -2.38489,5.20242 -1.40591,1.34595 -1.57103,1.3674 -2.48589,0.32336 -0.90111,-1.02839 -1.03907,-0.98831 -1.71527,0.4984 -1.15266,2.53426 -0.16243,8.44107 1.82894,10.90908 0.96679,1.19823 1.58008,2.56692 1.36288,3.04147 -0.70208,1.5339 5.20636,6.71046 8.60344,7.53774 1.70216,0.41454 3.85927,1.42404 4.79355,2.24334 1.72055,1.50882 4.40822,1.976 5.19872,0.90368 0.6501,-0.88192 3.51262,-0.0475 4.53205,1.32112 0.49366,0.66274 1.31378,1.20497 1.82248,1.20497 0.51072,0 1.03214,1.07936 1.16433,2.41025 0.18003,1.81362 0.71675,2.60948 2.16778,3.2151 1.06061,0.44267 1.97826,1.3224 2.03922,1.95498 0.19134,1.98861 0.25622,2.12017 1.04582,2.12017 0.42425,0 0.80315,-0.36376 0.84202,-0.80838 z m -3.36003,-6.04519 c -0.61794,-0.51808 0.19077,-2.20024 1.05785,-2.20024 0.37885,0 0.68883,0.58204 0.68883,1.29342 0,1.26053 -0.81815,1.68528 -1.74668,0.90682 z m -6.93103,-7.80213 c 0.53029,-0.17941 1.39806,-0.17941 1.92838,0 0.53029,0.17939 0.0963,0.32619 -0.96419,0.32619 -1.06061,0 -1.49451,-0.14685 -0.96419,-0.32619 z m -1.89633,-3.29022 c -1.06386,-2.41747 -4.58212,-2.84582 -6.76491,-0.82364 -1.54245,1.42896 -3.32293,1.08407 -1.88786,-0.36566 0.65283,-0.65951 0.66322,-0.93489 0.0375,-0.99332 -0.47621,-0.0445 -1.21293,-0.15355 -1.63718,-0.24251 -0.42424,-0.0889 -1.11846,-0.19805 -1.5427,-0.24252 -0.42423,-0.0444 -0.77135,-0.682 -0.77135,-1.41674 0,-2.45498 -1.44697,-3.86436 -3.81229,-3.71324 -3.76137,0.24028 -6.08657,-2.56049 -3.75123,-4.51845 0.71427,-0.59883 0.53159,-1.07694 -0.81274,-2.12697 -2.00415,-1.56542 -1.83067,-2.77105 0.4393,-3.05284 0.87127,-0.10807 2.23251,-0.78677 3.025,-1.50802 0.79248,-0.72125 2.34606,-2.09317 3.45238,-3.0487 2.16633,-1.87108 1.98263,-4.06895 -0.40427,-4.83687 -0.67184,-0.21615 -1.22157,-0.84422 -1.22157,-1.39567 0,-0.74659 0.49251,-0.89903 1.92839,-0.5969 2.16594,0.45576 2.344,0.15926 0.99338,-1.65389 -1.20001,-1.61103 -0.65232,-2.03414 1.8825,-1.45434 2.93479,0.6713 6.05354,3.13935 5.49875,4.35148 -0.2544,0.55583 0.0475,1.50902 0.6708,2.11823 0.62332,0.60921 1.34875,1.61692 1.61203,2.23936 0.68119,1.61038 2.8412,1.42726 2.8412,-0.24085 0,-1.15581 0.18559,-1.24353 1.17443,-0.5554 0.65263,0.45409 0.98032,1.32995 0.73755,1.97129 -0.27115,0.71626 0.082,1.39752 0.93072,1.79577 1.30488,0.61224 1.30282,0.70172 -0.0454,1.95066 -2.28034,2.11258 -0.79756,4.75961 3.04449,5.43492 1.66579,0.29279 3.61021,0.40707 4.32094,0.25392 1.08892,-0.23462 1.37598,0.47095 1.82457,4.48443 0.62658,5.606 0.27694,6.76247 -1.90022,6.28512 -2.44696,-0.53648 -5.30535,0.31497 -5.84526,1.74116 -0.60335,1.59377 -3.3381,1.70283 -4.01696,0.16024 z m -7.33499,-5.88206 c 0.22106,-0.55658 -0.14978,-0.78962 -1.02917,-0.64671 -0.75614,0.12283 -1.53031,0.615 -1.72039,1.09357 -0.22105,0.55658 0.14978,0.78963 1.0292,0.6467 0.75613,-0.12283 1.53028,-0.615 1.72036,-1.09356 z m 14.05225,5.72037 c 0,-0.35569 0.15304,-0.64668 0.34017,-0.64668 0.18713,0 0.55467,0.29099 0.81687,0.64668 0.2622,0.35569 0.10919,0.64671 -0.34015,0.64671 -0.44928,0 -0.81689,-0.29102 -0.81689,-0.64671 z m -1.02846,-21.77224 c -0.28281,-0.2371 -0.51423,-0.73182 -0.51423,-1.09937 0,-0.40523 0.35928,-0.36705 0.91276,0.097 0.50203,0.42091 0.73344,0.91563 0.51423,1.0994 -0.21918,0.18377 -0.62992,0.14015 -0.91276,-0.097 z m -35.70978,-12.92682 c -0.51156,-1.70887 1.08427,-3.45623 3.15649,-3.45623 1.22885,0 3.77184,-4.29151 3.23632,-5.46156 -0.59663,-1.30349 0.22457,-1.2544 2.35364,0.14063 2.14928,1.40832 3.38753,6.6143 1.5732,6.6143 -0.63864,0 -1.60606,0.44945 -2.14987,0.99879 -0.68595,0.69295 -1.67596,0.87224 -3.23298,0.58554 -1.85175,-0.34098 -2.31819,-0.17635 -2.6668,0.9413 -0.58255,1.86767 -1.65351,1.69651 -2.27,-0.36281 z m 32.8815,43.39135 c 0,-0.15681 -0.34711,-0.28518 -0.77136,-0.28518 -0.42424,0 -0.77136,0.30818 -0.77136,0.68486 0,0.37668 0.34712,0.50502 0.77136,0.28519 0.42425,-0.21983 0.77136,-0.52802 0.77136,-0.68487 z m -19.29561,-3.03365 c -0.006,-0.44462 -0.34828,-1.2449 -0.75954,-1.77843 -0.58265,-0.7559 -0.75033,-0.57747 -0.75953,0.80837 -0.006,0.97814 0.33529,1.77843 0.75953,1.77843 0.42424,0 0.76604,-0.36377 0.75954,-0.80837 z m -7.70169,-13.38087 c 0,-0.33468 -0.34712,-0.78839 -0.77136,-1.00821 -0.42425,-0.21984 -0.77137,0.0541 -0.77137,0.60854 0,0.55451 0.34712,1.00819 0.77137,1.00819 0.42424,0 0.77136,-0.27382 0.77136,-0.60852 z m -2.30977,-6.02013 c 0.006,-3.15588 1.43119,-6.8368 2.91865,-7.54058 1.07757,-0.50985 1.1373,-0.77851 0.32569,-1.46545 -0.54661,-0.46264 -1.58793,-0.84453 -2.31407,-0.84864 -1.0236,-0.006 -1.26581,-0.47976 -1.07806,-2.10929 0.26356,-2.28733 -1.21014,-2.88117 -2.90385,-1.17016 -1.22277,1.23524 -2.87454,0.63471 -3.43881,-1.25023 -0.3089,-1.03187 -1.21399,-1.6583 -2.824482,-1.95486 -3.56168,-0.65585 -3.753229,0.21839 -0.524089,2.39198 3.742291,2.51902 3.705231,3.37668 -0.127375,2.94571 -2.561702,-0.28808 -3.32234,-0.0749 -5.013797,1.40531 -2.560987,2.24114 -2.509725,2.89489 0.361578,4.60902 2.247856,1.34196 2.423432,1.35467 3.842231,0.27817 1.41711,-1.07522 1.514544,-1.07086 2.079774,0.0929 0.35505,0.73098 1.35419,1.22094 2.48978,1.22094 1.50002,0 1.99864,0.41762 2.38381,1.99655 0.63151,2.58876 1.33655,3.50041 2.70714,3.50041 0.73887,0 1.11293,-0.70459 1.11579,-2.10178 z m 38.53874,-12.61066 c -0.0226,-2.84157 -0.10942,-2.97773 -1.15702,-1.81649 -1.23032,1.36378 -1.38838,2.28338 -0.66429,3.86537 0.92048,2.0111 1.84543,0.97059 1.82131,-2.04888 z m -57.826814,0.0855 c 0,-0.91317 -0.335695,-1.44281 -0.771357,-1.21707 -0.424239,0.21982 -0.771357,1.12721 -0.771357,2.01642 0,0.91317 0.335683,1.44282 0.771357,1.21707 0.424239,-0.21981 0.771357,-1.12721 0.771357,-2.01642 z m 4.950057,-3.50308 c 0.190001,-1.23248 0.368696,-2.45915 0.397336,-2.72592 0.0285,-0.26676 0.575668,-0.48501 1.215615,-0.48501 0.954052,0 0.997151,-0.22343 0.239258,-1.24091 -0.727765,-0.97701 -0.709071,-1.45833 0.08796,-2.26344 0.772236,-0.78012 0.800641,-1.23632 0.119705,-1.92409 -0.689028,-0.69607 -0.610089,-1.13824 0.346308,-1.94011 0.681324,-0.57121 1.572773,-1.03856 1.981027,-1.03856 1.413448,0 5.427518,-4.00229 4.984618,-4.96998 -0.2407,-0.52586 -0.43761,-1.22331 -0.43761,-1.54991 0,-0.79112 -11.351256,-0.76741 -11.935333,0.0248 -0.250844,0.3403 -0.225254,2.50774 0.05688,4.81652 0.441092,3.60957 0.741827,4.22778 2.146118,4.41171 1.445315,0.18929 1.34482,0.34384 -0.873752,1.34373 -2.781503,1.2536 -3.380885,3.56362 -1.300278,5.01131 0.747339,0.52001 1.041189,1.39214 0.772049,2.29125 -0.52545,1.75519 0.281841,3.79813 1.197496,3.03045 0.361484,-0.30306 0.812639,-1.55944 1.002546,-2.79194 z m -9.578187,0.36829 c 0,-0.55296 -0.563694,-0.74775 -1.542691,-0.53312 -1.737347,0.38092 -2.03135,1.22605 -0.578529,1.66297 1.282487,0.38569 2.12122,-0.0611 2.12122,-1.12985 z m -13.305794,0.13932 c -0.364006,-0.91552 -1.604406,-0.81487 -1.992661,0.1617 -0.141351,0.35568 0.32139,0.6467 1.02847,0.6467 0.707059,0 1.140957,-0.36377 0.964191,-0.80838 z m 62.562038,-2.33284 c -0.85736,-1.15099 -0.81751,-1.47697 0.26634,-2.17802 0.70105,-0.45343 1.3866,-1.5403 1.52347,-2.41529 0.20993,-1.34222 -0.24621,-1.74657 -2.91814,-2.58681 -1.74182,-0.54774 -3.74607,-1.40116 -4.4539,-1.89644 -0.70783,-0.49529 -1.49775,-0.72379 -1.75541,-0.50777 -0.25766,0.21602 -1.08114,0.11772 -1.83002,-0.21819 -1.10864,-0.49745 -1.47077,-0.283 -1.94955,1.15448 -0.54341,1.63152 -0.51768,4.06644 0.0483,4.56291 0.13216,0.11601 1.47801,0.29303 2.99095,0.39367 2.86736,0.19075 5.25179,1.91162 6.70106,4.83621 0.53764,1.08499 1.0188,1.35452 1.57924,0.88463 0.56046,-0.4699 0.49884,-1.08816 -0.20226,-2.02938 z m 6.28108,1.88599 c 0,-0.33469 -0.34711,-0.7884 -0.77135,-1.00822 -0.42425,-0.21982 -0.77136,0.0541 -0.77136,0.60854 0,0.55451 0.34711,1.00822 0.77136,1.00822 0.42424,0 0.77135,-0.27385 0.77135,-0.60854 z m -72.060647,-5.71218 c -1.328218,-1.06661 -1.344671,-1.05282 -0.368968,0.30933 0.561669,0.78412 1.187231,1.28644 1.39016,1.11632 0.202929,-0.17014 -0.256615,-0.81168 -1.021192,-1.42565 z m 18.11948,0.12936 c 1.516209,-1.35311 1.888483,-2.41151 1.99035,-5.65861 0.06896,-2.19681 0.37191,-4.79448 0.67336,-5.77261 0.522999,-1.69698 0.420346,-1.77843 -2.241558,-1.77843 -2.172107,0 -2.789643,0.25769 -2.789643,1.16405 0,0.64025 -0.373833,1.47748 -0.830746,1.86057 -0.593436,0.49751 -0.575293,1.41201 0.06333,3.20115 0.716928,2.00804 0.672199,3.04457 -0.22549,5.22743 -1.061395,2.58092 -0.88474,3.14727 1.051134,3.36985 0.244219,0.0281 1.28332,-0.69795 2.309111,-1.6134 z m 56.570657,-1.01761 c -0.54516,-0.73957 -2.62949,-0.70598 -2.62949,0.0422 0,0.3266 0.22938,1.09495 0.50973,1.70749 0.47831,1.04503 0.57188,1.04242 1.51799,-0.0422 0.55456,-0.63583 0.82535,-1.4042 0.60177,-1.70748 z m 4.31267,-1.19814 c 0,-1.36395 -1.12223,-1.74029 -1.92838,-0.64669 -0.56248,0.76302 0.1672,1.94008 1.20255,1.94008 0.39921,0 0.72583,-0.58202 0.72583,-1.29339 z m -77.250747,-1.71407 c 0.148437,-0.0769 0.03965,-0.45258 -0.242021,-0.83467 -0.597963,-0.81115 -2.727782,0.69969 -2.727782,1.93504 0,0.56243 0.366517,0.53686 1.349862,-0.0943 0.742416,-0.47642 1.471388,-0.92922 1.619941,-1.00619 z m 64.468357,-1.88896 c 2.07609,-1.7406 0.81458,-6.09747 -1.76549,-6.09747 -0.48352,0 -0.87916,-0.29101 -0.87916,-0.64669 0,-0.35569 -0.86775,-0.64671 -1.92836,-0.64671 -2.19879,0 -2.61205,1.05652 -0.57852,1.47901 1.00158,0.20811 0.70304,0.48694 -1.15703,1.08074 -1.37878,0.44015 -2.49275,0.99006 -2.47545,1.22204 0.036,0.48301 6.25593,4.53179 7.04845,4.58811 0.28789,0.0204 1.06889,-0.4201 1.73556,-0.97903 z m 11.0912,-4.31905 c -0.16605,-1.92357 -0.58444,-2.74846 -1.39422,-2.74846 -1.45343,0 -1.91258,2.41571 -0.79264,4.17019 1.40459,2.20037 2.44127,1.5264 2.18686,-1.42173 z m -76.471002,-2.20835 c -0.78869,-0.66124 -2.058358,0.51406 -2.058358,1.9054 v 1.39911 l 1.23569,-1.4791 c 0.679652,-0.81351 1.049845,-1.63495 0.822668,-1.82541 z m 16.454065,-1.93879 c 9.969729,-0.18029 18.298857,-0.47165 18.509177,-0.64745 0.21031,-0.1758 -8.467369,-0.22387 -19.283783,-0.10685 l -19.666201,0.21283 v -7.11371 -7.113717 L 85.573386,98.54361 105.62853,98.203788 85.92048,98.058575 c -14.499691,-0.106855 -19.952631,0.05996 -20.633642,0.630846 -0.592352,0.496612 -0.921826,2.999709 -0.915084,6.952029 0.0134,7.45983 0.482393,9.31743 2.212043,8.74895 0.686681,-0.22568 9.405551,-0.55784 19.375256,-0.73813 z m 22.161677,-0.0195 c -0.7505,-0.16396 -1.79182,-0.15322 -2.31406,0.0241 -0.52221,0.17715 0.0917,0.31131 1.36456,0.29812 1.27273,-0.0131 1.70002,-0.15811 0.9495,-0.32209 z m 39.54645,-0.55425 c 0,-0.54541 -0.929,-0.62161 -3.24658,-0.2663 -1.78564,0.27375 -10.37656,0.41735 -19.09097,0.3191 -8.71439,-0.0983 -13.24104,0.004 -10.05921,0.22379 10.73849,0.74705 32.39676,0.56215 32.39676,-0.27659 z m 0,-14.518405 c 0,-0.355686 -0.36758,-0.646697 -0.81689,-0.646697 -0.44927,0 -0.60232,0.291011 -0.34014,0.646697 0.26221,0.355686 0.6298,0.646697 0.81689,0.646697 0.18713,0 0.34014,-0.291011 0.34014,-0.646697 z m 2.44045,-5.173601 c 0.40463,-9.283297 -0.85303,-12.392452 -5.76985,-14.264023 -3.00108,-1.142332 -5.41489,-1.227877 -34.46684,-1.221404 -17.181841,0.0037 -33.620226,0.264132 -36.529715,0.578456 -8.794583,0.950141 -11.891831,4.794054 -10.870045,13.490577 l 0.508326,4.326543 h 43.500634 43.50064 z M 90.866116,90.476345 c -1.08701,-2.374923 2.04506,-4.472353 4.102575,-2.747339 1.714654,1.437557 0.636523,3.717385 -1.757977,3.717385 -1.045341,0 -2.100403,-0.436517 -2.344598,-0.970046 z m 6.765698,0.103558 c -2.48641,-2.511795 3.508696,-4.217551 12.326436,-3.507205 4.54034,0.365761 6.06184,1.291318 4.82715,2.936454 -1.13722,1.515249 -15.737742,2.001041 -17.153586,0.570751 z m 11.660636,-1.547098 c -1.80305,-0.136054 -4.75347,-0.136054 -6.5565,0 -1.80302,0.136224 -0.32783,0.247561 3.27826,0.247561 3.60607,0 5.08126,-0.111373 3.27824,-0.247561 z M 72.846075,87.889557 c 0,-0.533529 0.347114,-0.970058 0.771358,-0.970058 0.424244,0 0.771357,0.436529 0.771357,0.970058 0,0.533504 -0.347113,0.970045 -0.771357,0.970045 -0.424244,0 -0.771358,-0.436541 -0.771358,-0.970045 z m 31.273435,-3.132884 c -1.05636,-0.647601 -1.28404,-1.317635 -0.89231,-2.626123 0.45418,-1.517203 0.86402,-1.729301 3.0063,-1.555695 1.96002,0.158755 2.53626,0.532588 2.74652,1.781506 0.16357,0.971536 -0.26474,1.905947 -1.11161,2.425127 -1.71625,1.052159 -1.99518,1.050315 -3.7489,-0.02479 z m 2.85888,-1.986839 c 0.10614,-0.326035 -0.24104,-0.714058 -0.77136,-0.862263 -0.53029,-0.148143 -0.96419,0.215566 -0.96419,0.808372 0,1.095096 1.38289,1.138033 1.73555,0.05385 z M 6.9120253,77.850413 c 1.7094437,-1.583661 0.6043035,-2.926502 -1.8672277,-2.268838 -1.54938,0.412288 -2.1908406,2.236952 -1.1061171,3.14639 0.8334706,0.698781 1.4767313,0.508934 2.9733448,-0.877552 z M 4.1957924,77.257167 c 0,-0.376678 0.3471142,-0.684872 0.7713582,-0.684872 0.9884011,0 0.9884011,0.457901 0,0.970046 -0.424244,0.21984 -0.7713582,0.09147 -0.7713582,-0.285174 z M 20.394186,50.399375 c 2.333321,-0.925316 3.374662,-1.518008 2.314054,-1.317089 -1.06061,0.200917 -3.730397,0.684788 -5.932844,1.075268 -2.221908,0.393931 -4.202388,1.142433 -4.449119,1.681495 -0.60532,1.322503 2.499877,0.768397 8.067909,-1.439674 z m 67.397831,-1.064831 c 5.373709,-2.293855 10.741414,-3.786724 13.652303,-3.796982 2.43152,-0.0085 17.93385,-4.841811 18.27399,-5.697381 0.26437,-0.664957 -5.73522,-13.710095 -6.68427,-14.533837 -0.31673,-0.274926 -1.93901,-0.01552 -3.60503,0.576588 -1.66602,0.59205 -8.38624,2.626883 -14.933804,4.52185 -6.547586,1.894968 -12.333772,3.818117 -12.858201,4.273662 -0.580324,0.504073 -1.167546,3.929076 -1.500257,8.750344 l -0.546729,7.922074 h 1.73925 c 0.956561,0 3.864807,-0.907343 6.462748,-2.016318 z m -6.918272,-3.642307 c 1.236896,-10.932836 1.074068,-10.512421 4.589459,-11.850718 3.881589,-1.477709 6.666681,-1.599588 6.666681,-0.291742 0,0.524269 1.047135,3.163284 2.326995,5.864478 1.27986,2.701195 2.14355,5.160148 1.919304,5.46434 -0.224223,0.30419 -2.225926,1.051742 -4.448215,1.661225 -2.22229,0.609483 -5.328347,1.650286 -6.902362,2.312897 -4.502175,1.895273 -4.706271,1.739911 -4.151862,-3.16048 z m -49.645887,1.367961 c 2.184636,-0.732858 2.90493,-1.263785 2.348013,-1.730703 -0.556919,-0.466918 -0.545714,-0.933814 0.03639,-1.521982 0.908379,-0.917628 0.670918,-1.040009 -3.576289,-1.843122 -6.277946,-1.187114 -9.465674,-1.108472 -11.114842,0.274199 -0.886851,0.743529 -1.612451,1.829851 -1.612451,2.414049 0,0.911494 0.652951,1.004958 4.602748,0.658837 2.531518,-0.221835 5.149801,-0.227337 5.81844,-0.01225 1.09137,0.351123 1.081736,0.515204 -0.09423,1.604613 -1.617719,1.498689 -0.548203,1.545237 3.592091,0.156332 z M 18.851471,43.794317 c 0,-1.236093 1.951693,-2.143592 4.589551,-2.134052 2.644657,0.0096 5.389888,0.901682 4.64433,1.509275 -0.764424,0.622977 -9.233881,1.196031 -9.233881,0.624777 z M 143.60877,32.826628 c 8.38365,-2.718943 15.65037,-5.265323 16.14823,-5.658624 0.6869,-0.542627 0.16817,-2.350943 -2.15064,-7.497773 -1.68072,-3.730474 -3.36661,-7.043221 -3.74643,-7.361659 -0.59829,-0.501603 -30.06795,8.323042 -33.18055,9.935868 -0.85989,0.445557 -0.43397,1.967718 2.24897,8.037685 2.02969,4.591946 3.7212,7.488036 4.37358,7.488036 0.58509,0 7.92317,-2.224589 16.30684,-4.943533 z m -17.38427,2.518408 c -0.4219,-0.978134 -1.84018,-4.189761 -3.15167,-7.136948 -1.71026,-3.843188 -2.11453,-5.423344 -1.42959,-5.587738 0.52526,-0.126064 4.39223,-1.28382 8.59323,-2.572788 4.20103,-1.288966 7.78244,-2.222675 7.95868,-2.074909 0.26131,0.219089 -6.85829,2.659538 -13.09,4.48697 -0.74244,0.217715 -1.3486,0.768747 -1.34702,1.224515 0.006,1.476403 4.46882,10.485454 5.31206,10.721111 0.76604,0.214083 20.3192,-5.678415 23.33898,-7.033388 1.29533,-0.581213 1.23722,-0.943023 -0.95038,-5.917353 -1.28156,-2.914057 -2.70076,-5.672726 -3.15376,-6.130379 -0.62825,-0.634655 -0.20864,-1.048913 1.76848,-1.745884 1.4257,-0.502589 2.80924,-0.801322 3.07453,-0.663853 1.07241,0.555679 6.27228,13.316612 5.62337,13.800248 -0.60997,0.454625 -30.71351,10.408822 -31.4784,10.408822 -0.16588,0 -0.6466,-0.800291 -1.06851,-1.778426 z m 13.72917,-18.16017 c 0.63636,-0.329642 2.02479,-0.793959 3.0854,-1.031809 1.34021,-0.300554 1.57547,-0.249648 0.77136,0.166898 -0.63636,0.329643 -2.0248,0.793957 -3.08541,1.031807 -1.34021,0.300554 -1.57549,0.24965 -0.77135,-0.166896 z M 69.760684,34.536661 c 0,-0.355684 -0.520661,-0.646699 -1.157027,-0.646699 -0.636366,0 -1.157027,0.291015 -1.157027,0.646699 0,0.355686 0.520661,0.646702 1.157027,0.646702 0.636366,0 1.157027,-0.291016 1.157027,-0.646702 z m 17.548595,-5.658625 c 0.188277,-0.47415 -0.343376,-0.808375 -1.285947,-0.808375 -0.947472,0 -1.60697,0.417567 -1.60697,1.017469 0,1.188554 2.406943,1.014586 2.892917,-0.209094 z m 97.382781,-8.245425 c 0,-0.533528 -0.50017,-0.970051 -1.1115,-0.970051 -1.28867,0 -2.15857,0.923021 -1.4387,1.526549 0.92188,0.772907 2.5502,0.41758 2.5502,-0.556498 z m -7.37585,-4.688576 c -0.99821,-3.833656 -4.66046,-10.3337204 -5.44949,-9.6722052 -0.3194,0.2677902 3.08137,8.1847652 4.4096,10.2655312 1.09933,1.722157 1.57251,1.452179 1.03989,-0.593326 z M 142.7639,10.277174 c 0.24627,-0.5380554 0.032,-1.3983546 -0.47628,-1.9117715 -0.50824,-0.5134169 -0.70013,-1.2372473 -0.42645,-1.6085144 0.27368,-0.3712647 0.11913,-0.6750289 -0.34349,-0.6750289 -1.21461,0 -1.80641,1.6889937 -1.24682,3.5582973 0.54023,1.8046895 1.81009,2.1291575 2.49304,0.6370175 z"
       id="path21"
       inkscape:connector-curvature="0" />
    <path
       style="opacity:1;fill:#000080;fill-opacity:1;fill-rule:nonzero;stroke:none;stroke-width:18.5714283;stroke-linecap:square;stroke-linejoin:round;stroke-miterlimit:4;stroke-dasharray:none;stroke-dashoffset:0;stroke-opacity:1"
       d="m 93.440774,1112.7737 c -8.002677,-3.223 -11.426874,-14.8324 -25.205751,-85.4572 l -10.825862,-55.48901 7.543561,-34.51103 c 4.148958,-18.98109 8.779709,-47.20317 10.290558,-62.71577 3.48686,-35.8012 9.968794,-46.47823 35.55,-58.55798 9.62084,-4.54305 23.45316,-11.05988 30.7385,-14.48185 16.9657,-7.96886 35.26779,-23.65769 44.31233,-37.98515 3.90655,-6.18837 10.85583,-13.39331 15.44285,-16.01094 4.58701,-2.61766 9.64538,-8.48694 11.24082,-13.04286 1.64177,-4.68825 3.06403,-41.27028 3.27691,-84.28571 0.20686,-41.80123 1.32332,-71.50223 2.48102,-66.00223 1.29974,6.17483 2.169,-5.30071 2.27245,-30 0.16245,-38.79017 -2.23317,-68.05597 -5.86851,-71.69128 -0.97569,-0.97572 -19.47603,3.51374 -41.11188,9.97654 -31.57418,9.43146 -40.04612,11.04214 -42.92641,8.1612 -3.04857,-3.04926 -48.94664,-105.26751 -77.40859,-172.39442 l -8.57912,-20.23367 24.668173,-8.83167 c 21.643483,-7.74877 92.705067,-30.56919 141.062087,-45.30008 9.01665,-2.74672 17.06796,-4.31999 17.89179,-3.49615 0.82384,0.82384 -1.09633,7.36255 -4.26704,14.53048 -8.32528,18.82067 -10.63277,45.39675 -4.67958,53.89612 4.06625,5.80539 4.66187,17.96488 4.66842,95.30438 0.004,48.75749 0.96841,115.00712 2.14286,147.22141 1.87209,51.35034 2.31147,39.61086 3.56392,-95.22092 l 1.42857,-153.79234 10.3858,-9.51649 c 14.06251,-12.88548 22.28671,-13.55362 172.05678,-13.97805 132.45425,-0.37537 137.40765,0.0929 150.70871,14.2476 l 6.84871,7.28824 1.42858,285.24953 c 0.78571,156.88726 2.39285,286.21309 3.57142,287.39074 1.17858,1.17766 2.14286,-1.12665 2.14286,-5.12068 0,-3.99406 0.7486,-11.00486 1.66354,-15.57957 l 1.66352,-8.31769 12.62037,12.62037 c 11.45909,11.45909 13.57309,12.46577 22.97406,10.9402 l 10.35365,-1.68017 -1.23674,23.44891 c -1.31234,24.88252 -11.91491,54.68378 -20.64734,58.03472 -2.37677,0.91206 -10.96977,-0.54994 -19.09557,-3.24892 -10.55426,-3.50557 -20.34186,-4.5088 -34.26717,-3.51245 l -19.49303,1.39471 4.22203,-10.10474 c 2.32211,-5.5576 5.62408,-11.79412 7.33771,-13.85892 1.71363,-2.0648 2.34806,-5.75457 1.40986,-8.19948 -2.77386,-7.22857 -12.08083,-0.24543 -26.89215,20.17746 -10.14565,13.98954 -14.06645,17.49977 -16.9104,15.13951 -2.03628,-1.68997 -3.70234,-5.32926 -3.70234,-8.08729 0,-7.79971 -7.281,-12.16602 -16.80066,-10.07517 -4.92148,1.08095 -14.83485,-0.0468 -23.68845,-2.69523 -8.37383,-2.50474 -37.35777,-6.50097 -64.40875,-8.88051 -83.1553,-7.3148 -80.62258,-9.12654 13.2312,-9.4646 47.7976,-0.17229 85.94143,-1.27734 84.76403,-2.45591 -1.1774,-1.17858 -51.21311,-2.93438 -111.19048,-3.9018 -74.04661,-1.19438 -111.80103,-2.85552 -117.62117,-5.17526 -4.71429,-1.87894 -12.73074,-7.42812 -17.81435,-12.33146 -12.30799,-11.87157 -14.93626,-8.35166 -3.4944,4.67992 4.97396,5.665 7.71826,10.30002 6.09845,10.30002 -1.61981,0 -6.96507,-4.82142 -11.87835,-10.71428 l -8.93325,-10.71429 -8.69475,10.71429 c -16.20625,19.97048 -18.64016,10.21797 -5.28335,-21.17006 4.71428,-11.07843 8.59111,-22.25794 8.61518,-24.8434 0.024,-2.58546 1.25901,-6.62314 2.74432,-8.97263 2.31946,-3.66891 3.34941,-3.46731 7.29804,1.42857 4.30864,5.34229 4.49521,4.55229 2.96995,-12.57588 -0.89512,-10.05194 -1.62749,-59.4448 -1.62749,-109.76192 0,-50.31708 -0.81748,-90.66817 -1.81661,-89.66902 -0.99913,0.99911 -2.71779,30.4634 -3.81923,65.47617 l -2.00262,63.6596 -0.51024,-68.57143 c -0.33849,-45.49072 -1.44248,-67.12889 -3.27988,-64.28572 -1.59943,2.47495 -2.81692,35.67226 -2.88155,78.57143 -0.0615,40.85715 -1.26393,79.25069 -2.67195,85.31897 -4.51062,19.43998 -25.64604,36.1096 -45.7833,36.1096 -4.76476,0 -8.6632,0.80703 -8.6632,1.7934 0,0.98635 6.5313,10.6036 14.514,21.37169 13.91971,18.77666 17.59394,29.32711 22.52918,64.69206 0.0548,0.39285 2.78712,0.71428 6.07177,0.71428 3.28464,0 9.35667,-3.85714 13.49338,-8.57143 8.24743,-9.39894 11.9631,-10.78242 11.9631,-4.45434 0,2.2644 1.3885,4.97523 3.08555,6.02409 6.19452,3.82843 131.2676,22.37305 178.35251,26.4444 37.36843,3.23117 54.1078,9.86245 97.72091,38.712 15.70049,10.38568 37.19415,22.92985 47.76366,27.87594 17.4664,8.1735 19.88857,8.6339 26.58489,5.0525 4.05217,-2.1672 11.243,-8.76173 15.97963,-14.65459 7.80874,-9.71485 9.90002,-10.71428 22.4196,-10.71428 7.59414,0 13.80754,1.05428 13.80754,2.34286 0,1.28857 4.6002,7.71714 10.22263,14.28571 8.3372,9.7401 12.04248,11.9429 20.08968,11.9429 14.23746,0 15.21609,6.2955 4.26266,27.4217 -5.09726,9.8313 -11.08949,24.719 -13.31603,33.0838 -4.60871,17.3143 -5.42386,39.4945 -1.45148,39.4945 2.93374,0 3.90028,-2.5244 10.14225,-26.489 2.33963,-8.9824 9.51557,-26.7967 15.94657,-39.5873 6.43098,-12.7906 17.93786,-42.6916 25.57083,-66.4468 17.86543,-55.60026 18.73246,-64.79786 7.35583,-78.03191 -6.66246,-7.7502 -8.00714,-8.06392 -40.48648,-9.44503 -23.51663,-1 -33.95378,-2.51369 -34.79055,-5.04563 -1.70428,-5.15694 15.03443,-19.90283 25.10283,-22.1142 4.67177,-1.02612 8.47443,-2.72777 8.45037,-3.78149 -0.19457,-8.51645 -11.36408,-10.46345 -57.8134,-10.0776 l -25,0.20772 v -8.604 c 0,-6.40683 3.65055,-12.46395 14.29515,-23.71906 19.06551,-20.15894 40.20628,-63.46443 47.16148,-96.60717 6.23994,-29.7344 5.95097,-30.14972 -21.0246,-30.21477 -16.58154,-0.04 -18.85128,-0.80583 -26.42857,-8.91735 l -8.28917,-8.87362 V 518.38123 364.56137 L 639,350.28519 c 60.07823,-19.68464 121.66694,-37.47979 129.71697,-37.47979 8.44237,0 18.14017,-9.45777 18.14017,-17.69122 0,-3.44445 -8.35714,-25.74528 -18.57143,-49.55739 -10.21428,-23.81211 -18.51157,-44.45821 -18.4384,-45.88021 0.43643,-8.48205 38.43272,78.29243 41.54389,94.87635 1.28045,6.82537 0.55471,11.43019 -2.3318,14.79531 -2.30495,2.68715 -4.93477,6.99501 -5.844,9.57301 -0.90926,2.578 -9.1404,8.12582 -18.29143,12.32848 -9.15106,4.20266 -21.78112,10.04572 -28.06683,12.98458 -6.28571,2.93885 -19.14286,6.81943 -28.57143,8.6235 -9.42857,1.80407 -28.07143,6.90345 -41.42857,11.33194 -13.35714,4.4285 -34.29766,10.95155 -46.53446,14.49567 l -22.24877,6.44385 0.8202,134.07024 c 0.78863,128.91338 1.03349,134.22615 6.36626,138.12378 3.05034,2.22945 10.58957,4.05354 16.75386,4.05354 13.00985,0 31.55457,9.45883 35.7246,18.22151 5.56597,11.696 5.96117,15.95535 3.11845,33.60715 -3.42048,21.23911 -9.80751,38.04848 -27.47197,72.30034 -12.21383,23.683 -12.80266,25.77863 -8.02774,28.57143 24.09111,14.09068 41.77514,29.02874 69.35671,58.58708 31.74489,34.02003 32.14286,34.61709 32.14286,48.22192 0,7.57648 -3.0184,22.67917 -6.70754,33.56157 -3.68915,10.88237 -8.36895,26.85757 -10.39957,35.50043 -2.03063,8.64285 -9.74803,27.92854 -17.14983,42.85714 -11.71986,23.6377 -18.42212,43.5555 -24.12766,71.7031 -1.48329,7.3176 -1.93686,7.4424 -33.70231,9.2727 -48.59935,2.8004 -534.11839,1.8967 -541.329456,-1.0075 z m 15.409356,-7.5517 c 0.99751,-2.5995 0.26697,-10.5091 -1.62338,-17.577 -5.24523,-19.6113 -26.429893,-69.1253 -29.575413,-69.1253 -5.648503,0 6.034469,73.3058 13.498472,84.6973 5.096617,7.7784 15.052101,8.9061 17.700321,2.005 z M 553.47354,909.59123 c 8.43823,-4.34597 19.09789,-14.27109 19.09789,-17.78192 0,-1.57142 -3.17012,0.12115 -7.04469,3.761 -3.87457,3.63998 -13.83886,8.96498 -22.14286,11.83335 -13.94334,4.81628 -14.37357,5.22234 -5.62463,5.30845 5.21046,0.0514 12.28189,-1.35308 15.71429,-3.12088 z m -1.82346,-9.84606 c 12.60823,-9.25174 18.05472,-22.81708 18.05977,-44.98086 l 0.006,-19.46968 -69.7672,0.89826 c -38.37194,0.49402 -70.59134,1.72477 -71.59866,2.73497 -1.00728,1.0102 1.7808,8.361 6.19577,16.33508 7.53663,13.61223 7.76366,14.98426 3.71495,22.44897 -5.22883,9.64043 -26.26292,20.80778 -39.1922,20.80778 -6.73615,0 -12.44975,-2.76138 -19.96606,-9.64955 -13.36446,-12.24763 -14.2422,-24.87363 -2.77434,-39.90874 l 7.75508,-10.16746 -10.59571,-1.98777 c -13.96572,-2.62 -90.77761,0.85437 -104.62198,4.73229 -7.48175,2.09568 -11.71479,5.31291 -13.63475,10.3628 -5.29674,13.93148 3.3243,40.5862 15.22896,47.08525 7.26659,3.96703 117.89317,7.59889 214.04908,7.02726 54.94794,-0.32668 59.64252,-0.76497 67.14286,-6.2686 z M 415.75317,886.9174 c 7.82106,-4.18571 11.60428,-15.2812 8.23348,-24.14711 -5.37225,-14.13009 -25.04114,-16.33898 -37.2022,-4.17792 -7.73368,7.73369 -7.08911,13.20509 2.71006,23.00423 8.76334,8.76337 16.78792,10.38937 26.25866,5.3208 z M 235.38482,870.66254 c -0.0318,-5.71825 -0.73766,-6.761 -2.5928,-3.83051 -1.40198,2.21463 -1.88759,5.75034 -1.07914,7.85714 2.31845,6.04177 3.71945,4.50546 3.67194,-4.02663 z M 560.89254,777.8054 c -0.13771,-28.67857 -1.18649,-58.57143 -2.33071,-66.42857 l -2.08046,-14.28572 -2.27937,13.57143 c -1.28383,7.64383 -3.82235,13.57143 -5.81203,13.57143 -4.55306,0 -26.51492,-15.85231 -36.09772,-26.05571 -7.85054,-8.359 -19.70925,-12.79935 -26.85728,-10.05637 -6.43154,2.468 -5.1746,13.42062 2.48686,21.67002 3.72845,4.01458 11.38171,17.58492 17.00728,30.15635 7.46623,16.68477 12.00089,23.35888 16.79243,24.7152 10.43711,2.95434 -14.90037,3.40525 -142.00726,2.52725 -82.86585,-0.5724 -117.75707,-1.7504 -119.24196,-4.02582 -4.23035,-6.48252 -2.2833,-13.21663 3.82135,-13.21663 5.84058,0 42.56347,-34.21269 42.56347,-39.65406 0,-1.40511 8.97396,-9.89663 19.94214,-18.87003 14.63969,-11.9772 20.6856,-19.00791 22.73829,-26.44208 1.53786,-5.56972 5.6404,-13.15438 9.11674,-16.85475 3.47632,-3.7004 5.40763,-7.64094 4.29177,-8.7568 -3.80031,-3.80031 -23.06765,9.10546 -44.60095,29.87489 -11.81839,11.39914 -30.32631,26.00226 -41.12871,32.45134 -22.88432,13.66209 -25.50641,12.45466 -23.82729,-10.97197 0.83886,-11.70357 2.72205,-16.4682 8.69791,-22.00643 4.19499,-3.88777 7.62724,-9.05866 7.62724,-11.49083 0,-2.79597 2.59104,-4.42214 7.04593,-4.42214 6.55196,0 18.61345,-4.32186 35.81122,-12.83183 3.92857,-1.94397 10.36618,-4.29817 14.3058,-5.23154 3.93962,-0.93337 14.8682,-8.89874 24.28571,-17.70083 9.41754,-8.80211 20.65849,-19.22254 24.97991,-23.15651 8.59495,-7.8244 9.48815,-11.70435 4.19486,-18.22215 -7.9486,-9.78731 -31.719,-26.62034 -38.66866,-27.38323 -7.64597,-0.83931 -14.81191,-7.8986 -14.81191,-14.59142 0,-2.0568 -1.18706,-3.73963 -2.63791,-3.73963 -1.45088,0 -6.59108,-3.32635 -11.4227,-7.39189 -9.4079,-7.91623 -8.82868,-8.20777 -13.26667,6.6776 -2.62638,8.80906 -6.95843,2.28009 -6.95843,-10.48726 0,-13.28568 0.4695,-14.16182 8.53866,-15.93411 9.98087,-2.19217 13.40671,-6.34754 8.92667,-10.82757 -1.74879,-1.7488 -3.17962,-7.28494 -3.17962,-12.30252 0,-5.47355 -1.71437,-9.78076 -4.28571,-10.76747 -2.45043,-0.94032 -4.28572,-5.20375 -4.28572,-9.95584 0,-11.47657 -7.21262,-17.30852 -13.55827,-10.96288 -5.63105,5.63105 -9.80012,36.02928 -5.66161,41.28091 1.89924,2.41008 1.82458,8.71328 -0.22406,18.91417 -1.68992,8.41469 -2.3564,18.03809 -1.48109,21.38529 1.94841,7.45071 -4.06371,8.08528 -16.35972,1.72677 -8.11217,-4.19497 -8.42953,-5.10932 -8.42953,-24.28572 0,-10.95965 -1.13466,-19.92663 -2.52147,-19.92663 -5.0329,0 -6.62502,46.15632 -4.87661,141.375 0.9816,53.45803 2.52029,107.80358 3.41931,120.76786 l 1.63459,23.57143 h 137.61952 c 75.69074,0 141.73377,-1.17994 146.76228,-2.62211 5.02852,-1.44215 11.77003,-1.93506 14.98115,-1.09535 5.35645,1.40075 5.83837,3.73972 5.83837,28.3364 v 26.80963 H 406 c -111.24346,0 -150.29255,-0.86397 -152.80953,-3.38094 -4.29827,-4.29829 -7.0196,-1.73194 -4.66633,4.40057 1.64053,4.27517 15.68829,4.69466 157.21011,4.69466 h 155.4086 l -0.25028,-52.14286 z m -1.48394,-95.23369 c 2.30234,-5.9998 2.23414,-113.89305 -0.0826,-130.79611 -1.30658,-9.53237 -3.11235,-13.261 -6.42858,-13.27397 -2.53642,-0.009 -6.80185,-3.86709 -9.47877,-8.57143 -3.938,-6.92043 -6.75928,-8.55337 -14.77797,-8.55337 -7.07783,0 -13.44526,-2.86603 -22.27574,-10.02652 -6.80074,-5.5146 -18.15069,-12.62165 -25.22212,-15.79351 -25.7704,-11.55914 -26.7484,-12.39306 -31.14731,-26.55782 -3.4274,-11.03654 -3.57426,-14.83954 -0.74774,-19.36549 1.93445,-3.09758 2.75491,-6.86538 1.82323,-8.37288 -2.11866,-3.42808 -11.91866,-3.59754 -13.99252,-0.24194 -0.84946,1.37443 -8.8532,3.10506 -17.78614,3.84585 -12.41006,1.02914 -17.47777,2.8734 -21.48132,7.81756 -7.2936,9.0072 -6.62108,11.0374 4.04609,12.21459 l 9.28571,1.02474 -8.57142,2.39717 c -13.17503,3.68465 -18.41698,9.6811 -18.00655,20.59828 0.30197,8.03291 1.26346,9.4076 5.61403,8.0268 3.5706,-1.13329 5.24966,-0.234 5.24966,2.81205 0,6.84749 7.47194,5.33229 13.33311,-2.70377 4.62255,-6.33777 7.57772,-7.26137 25.13977,-7.85714 17.29346,-0.58663 20.04103,0.009 20.9666,4.54723 0.75683,3.71063 -0.45522,5.02651 -4.18717,4.54586 -8.61371,-1.10943 -20.9666,3.41797 -20.9666,7.6844 0,2.18677 1.28572,3.97597 2.85715,3.97597 1.57142,0 2.85714,1.77863 2.85714,3.95248 0,2.17386 2.56494,4.62323 5.69986,5.44303 8.92502,2.33394 10.12737,10.02392 2.78865,17.83563 -4.64417,4.94346 -8.41168,6.46563 -13.09428,5.29037 -5.33795,-1.33974 -6.92526,-0.25086 -8.44149,5.79017 -2.50026,9.96186 0.79852,26.70412 7.54249,38.2802 3.02763,5.19697 5.50477,11.43112 5.50477,13.85369 0,12.4694 52.66848,42.80654 69.63126,40.10774 11.57357,-1.84137 26.71565,7.91846 29.09962,18.75617 0.95349,4.33449 4.26206,9.23409 7.3524,10.888 3.09035,1.65392 6.81118,6.1432 8.26849,9.97623 3.03723,7.98854 7.1056,9.02366 9.62826,2.44974 z M 524,649.94826 c 0,-1.57143 -1.20983,-2.85715 -2.68852,-2.85715 -1.47868,0 -3.48314,1.28572 -4.45434,2.85715 -0.9712,1.57143 0.23857,2.85714 2.68851,2.85714 2.44989,0 4.45435,-1.28571 4.45435,-2.85714 z m -71.42857,-9.76632 c 0,-0.6572 -0.7804,-3.22863 -1.73426,-5.71428 C 448.3874,628.08366 444,628.8504 444,635.66254 c 0,3.1746 1.90477,5.71429 4.28571,5.71429 2.35714,0 4.28572,-0.53772 4.28572,-1.19489 z m -31.42858,-52.9222 c 0,-1.47868 -1.28571,-3.48314 -2.85714,-4.45434 -1.57143,-0.9712 -2.85714,0.23857 -2.85714,2.68851 0,2.44989 1.28571,4.45435 2.85714,4.45435 1.57143,0 2.85714,-1.20983 2.85714,-2.68852 z m -6.98848,-27.34497 c 1.0632,-7.08986 4.4398,-16.07746 7.5036,-19.97243 6.20686,-7.89077 4.84011,-12.85123 -3.54089,-12.85123 -3.97485,0 -5.54565,-1.97545 -5.54565,-6.97422 0,-8.89695 -3.95543,-11.31549 -11.15383,-6.82 -4.90566,3.06362 -6.63997,2.49768 -12.83692,-4.18895 -7.37714,-7.96003 -21.76488,-10.72131 -21.67417,-4.15968 0.0286,1.96428 4.18763,6.46428 9.24549,10 l 9.19611,6.42857 h -11.68543 c -8.44374,0 -13.78265,1.94368 -19.24548,7.00643 -4.15803,3.85354 -7.56006,8.32391 -7.56006,9.93414 0,5.783 14.11426,12.37943 22.77974,10.64634 4.635,-0.927 9.19586,-0.44185 10.13523,1.07809 0.9394,1.51997 4.26914,2.76357 7.39943,2.76357 3.80391,0 7.07717,3.31649 9.86974,10 6.2996,15.07711 14.62966,13.67006 17.11309,-2.89063 z M 558.28571,518.2816 c 0,-8.05589 -1.10534,-11.30266 -3.57143,-10.49051 -6.75137,2.22342 -6.18943,22.15717 0.62463,22.15717 1.62074,0 2.9468,-5.25 2.9468,-11.66666 z m -217.65843,0.72857 c 0.60632,-4.1206 -0.59331,-6.20477 -3.57143,-6.20477 -2.9172,0 -4.48442,2.57951 -4.48442,7.38094 0,8.95063 6.70991,7.97097 8.05585,-1.17617 z m 18.86863,-15.00006 c 1.49834,-5.37688 3.95492,-10.61065 5.45909,-11.63065 1.50414,-1.01997 1.96077,-3.87166 1.01468,-6.33706 -0.94605,-2.46543 -0.48583,-5.2454 1.02272,-6.17774 1.50857,-0.93235 2.02203,-4.56716 1.14103,-8.07737 -1.29089,-5.14328 0.19257,-7.18915 7.64268,-10.53918 11.58332,-5.2087 20.56457,-17.02698 18.00617,-23.69406 -1.63314,-4.25589 -5.23748,-4.85029 -25.13014,-4.14429 l -23.22357,0.82421 0.85731,15.59388 c 0.47152,8.57662 2.2834,17.31218 4.02637,19.41234 2.42026,2.91625 1.71138,4.83946 -3.00017,8.13957 -7.22705,5.06201 -8.00334,13.20378 -1.75348,18.3907 2.42865,2.0156 3.75471,5.38731 2.9468,7.49268 -2.04743,5.33557 1.25865,12.859 5.0896,11.58203 1.74717,-0.5824 4.40257,-5.45817 5.90091,-10.83506 z m -36.92448,3.27998 c 0,-2.20469 -1.28572,-4.41618 -2.85715,-4.91443 -4.68752,-1.48632 -10.89242,3.81714 -8.67108,7.41137 2.75557,4.4586 11.52823,2.55851 11.52823,-2.49694 z m -50,-0.19898 c 0,-1.57142 -1.92858,-2.85714 -4.28572,-2.85714 -2.35714,0 -4.28571,1.28572 -4.28571,2.85714 0,1.57143 1.92857,2.85715 4.28571,2.85715 2.35714,0 4.28572,-1.28572 4.28572,-2.85715 z m 237.99471,-1.80422 c 0.99234,-0.99235 0.59077,-4.07163 -0.89234,-6.84286 -1.91252,-3.57357 -1.46792,-6.05829 1.52908,-8.5456 6.34337,-5.26454 5.30923,-16.36406 -1.73291,-18.59914 l -5.9586,-1.89119 5.9586,-6.34264 c 7.85714,-8.36353 7.52066,-14.79953 -1.19603,-22.87788 l -7.15463,-6.63069 10.72606,-1.77287 c 5.89934,-0.97508 18.76177,-1.78702 28.5832,-1.80432 11.43708,-0.02 17.85714,-1.20173 17.85714,-3.28656 0,-2.25083 -4.62786,-2.69925 -15,-1.45341 -8.25,0.99094 -36.85714,2.06935 -63.57143,2.39645 -48.56311,0.59464 -48.5658,0.59503 -15.71428,2.31208 18.07143,0.94453 29.82674,1.97379 26.12288,2.28724 -4.8806,0.41303 -6.25363,1.82235 -4.9882,5.12002 1.16477,3.03538 -0.16028,5.04859 -3.98003,6.04751 -7.72991,2.02142 -7.20785,4.95488 2.13106,11.97424 l 7.85714,5.90562 -11.29482,-1.32518 c -12.80649,-1.50254 -15.73846,1.20866 -15.80429,14.61435 -0.0409,8.33794 0.73526,9.01103 12.09911,10.49185 9.35489,1.21906 14.11086,3.91543 20.71429,11.74386 8.82863,10.46643 10.61611,11.572 13.709,8.47912 z m 21.291,-1.7672 c -1.34826,-4.04478 -5.9428,-3.60015 -7.38094,0.71428 -0.52383,1.57143 1.19045,2.85714 3.80951,2.85714 2.61906,0 4.2262,-1.60714 3.57143,-3.57142 z M 261.14285,482.8054 c -2.01928,-2.43309 -4.31428,-3.78095 -5.1,-2.99523 -0.78571,0.78571 0.22357,3.41929 2.24286,5.85237 2.01929,2.43309 4.31429,3.78095 5.1,2.99523 0.78572,-0.78571 -0.22357,-3.41928 -2.24286,-5.85237 z m 67.82126,0.71429 c 3.97429,-4.28662 6.59817,-12.14047 7.87494,-23.57143 1.05309,-9.42857 2.53892,-19.39286 3.3018,-22.14286 1.15189,-4.15224 -0.5268,-5 -9.9008,-5 -13.66542,0 -15.06539,3.04799 -16.07586,35 -0.60265,19.05654 -0.0354,22.14286 4.06974,22.14286 2.62349,0 7.45207,-2.89286 10.73018,-6.42857 z m 212.07489,2.268 c 3.92628,-4.73089 1.69837,-10.12515 -4.18186,-10.12515 -5.25406,0 -7.56306,4.15194 -5.41789,9.74217 2.16829,5.6504 5.13009,5.76858 9.59975,0.38298 z m 17.24671,-10.12515 c 0,-3.1746 -1.90477,-5.71428 -4.28571,-5.71428 -4.34975,0 -5.86075,6.04401 -2.38095,9.52381 3.62226,3.62224 6.66666,1.8826 6.66666,-3.80953 z M 264.0573,471.30778 c 1.98777,-2.39511 2.72639,-5.2425 1.64137,-6.32751 -2.3831,-2.38311 -10.91515,2.61742 -12.481,7.31497 -1.62768,4.88302 6.58876,4.13453 10.83963,-0.98746 z m 287.97233,-26.35952 c -1.00423,-12.13343 -8.82272,-15.19959 -10.39843,-4.07793 -1.2888,9.09664 1.30531,14.79221 6.73731,14.79221 3.5082,0 4.34514,-2.44936 3.66112,-10.71428 z m -290.9873,-0.52646 c 3.90604,-7.2985 3.73554,-8.75926 -1.02236,-8.75926 -3.74361,0 -7.44854,5.80086 -7.44854,11.66225 0,4.64978 5.4235,2.79114 8.4709,-2.90299 z m 104.84255,-14.47354 c 18.3424,0 26.68655,-1.03644 26.68655,-3.31476 0,-2.47551 -18.08489,-2.84976 -71.42858,-1.47818 l -71.42857,1.83659 v -25.66468 -25.66469 l 16.42857,-0.39379 c 9.03572,-0.21658 42.78572,-1.26426 75,-2.32818 l 58.57143,-1.9344 -76.25995,-0.52896 c -43.79326,-0.30376 -76.94938,0.58656 -77.87932,2.09125 -3.4273,5.54549 -5.05783,29.07045 -3.10063,44.73534 l 2.04635,16.37844 47.33881,-1.86699 c 26.03635,-1.02685 59.34774,-1.86699 74.02534,-1.86699 z m 43.8294,0 c 0,-1.57143 -2.57143,-2.85715 -5.71428,-2.85715 -3.14286,0 -5.71429,1.28572 -5.71429,2.85715 0,1.57143 2.57143,2.85714 5.71429,2.85714 3.14285,0 5.71428,-1.28571 5.71428,-2.85714 z M 558.28571,372.8054 c 0,-1.57143 -1.28571,-2.85714 -2.85714,-2.85714 -1.57143,0 -2.85714,1.28571 -2.85714,2.85714 0,1.57143 1.28571,2.85714 2.85714,2.85714 1.57143,0 2.85714,-1.28571 2.85714,-2.85714 z m 9.66032,-32.07264 c -0.38366,-24.93074 -4.2614,-33.40024 -18.97295,-41.43933 -8.48951,-4.63909 -20.29731,-5.05335 -142.11594,-4.98594 -145.20436,0.0804 -151.24723,0.66646 -164.07714,15.91394 -6.54486,7.77814 -7.35143,11.22295 -7.35143,31.39764 v 22.66095 l 166.42857,-0.73731 166.42857,-0.73731 z"
       id="path404"
       inkscape:connector-curvature="0"
       transform="scale(0.26458333)" />
    <path
       style="opacity:1;fill:#000080;fill-opacity:1;fill-rule:nonzero;stroke:none;stroke-width:18.5714283;stroke-linecap:square;stroke-linejoin:round;stroke-miterlimit:4;stroke-dasharray:none;stroke-dashoffset:0;stroke-opacity:1"
       d="m 580.93662,768.51969 c -0.25233,-34.57143 -1.27344,-151.62995 -2.26913,-260.13003 -2.03176,-221.39926 -0.36028,-205.97175 -23.71406,-218.87735 -9.79147,-5.41089 -12.5647,-8.7716 -14.35145,-17.39169 -6.8735,-33.16089 -35.21708,-68.53718 -69.76476,-87.07504 l -15.51136,-8.3232 105.05135,-33.75006 c 57.77825,-18.56253 111.80426,-36.73152 120.05782,-40.37554 l 15.00645,-6.625497 4.18137,8.085877 c 3.99884,7.73291 37.97786,85.07527 67.73938,154.18707 7.71682,17.91992 13.65294,34.51431 13.19134,36.87642 -0.53957,2.7611 -13.08269,8.1155 -35.125,14.99417 -18.85714,5.88469 -59.22337,18.54029 -89.70273,28.12358 -30.47936,9.58328 -56.51507,17.42414 -57.85714,17.42414 -1.34207,0 -2.45769,-3.53571 -2.47915,-7.85714 -0.0563,-11.33982 -3.06214,-20.90071 -6.0001,-19.08496 -1.4252,0.88083 -2.53231,75.02562 -2.53231,169.59362 0,137.55211 0.7881,172.54785 4.34511,192.94525 6.35015,36.41443 11.53806,44.40323 28.83538,44.40323 10.21097,0 11.09857,6.32035 3.79354,27.01272 -6.45444,18.283 -6.58934,18.42614 -18.16695,19.27497 L 594,782.8054 l -0.16643,12.85714 c -0.0959,7.4128 -2.76465,17.69655 -6.3023,24.28572 l -6.13587,11.42857 z"
       id="path406"
       inkscape:connector-curvature="0"
       transform="scale(0.26458333)" />
    <path
       style="opacity:1;fill:#000080;fill-opacity:1;fill-rule:nonzero;stroke:none;stroke-width:18.5714283;stroke-linecap:square;stroke-linejoin:round;stroke-miterlimit:4;stroke-dasharray:none;stroke-dashoffset:0;stroke-opacity:1"
       d="m 32.861377,311.7262 c -1.859817,-2.24094 -6.650871,-4.895 -10.64679,-5.89791 l -7.265307,-1.82349 7.382502,-5.80706 c 9.429758,-7.41745 9.584144,-13.96377 0.329315,-13.96377 -4.863621,0 -6.577835,-1.23874 -5.52195,-3.99034 0.84218,-2.19468 -2.412457,-13.25788 -7.2325279,-24.58488 -12.6585737,-29.74721 -12.1096243,-32.77632 7.6572519,-42.25286 11.26108,-5.39872 17.676632,-10.54557 20.416892,-16.37934 5.259526,-11.19706 26.019234,-33.89062 26.019234,-28.44303 0,3.32838 4.297409,4.22188 20.305683,4.22188 16.87566,0 20.02788,0.72394 18.6611,4.28571 -1.15953,3.02169 0.225,4.2733 4.69432,4.2436 19.33486,-0.12849 29.38479,-19.43615 12.05318,-23.15628 -5.22287,-1.12106 1.16613,-1.97186 16.3542,-2.17784 20.22436,-0.27429 28.84661,-1.89019 45.71429,-8.56734 42.7299,-16.91484 67.79331,-23.97021 79.5498,-22.39333 17.95414,2.40815 42.21828,-4.52978 51.8372,-14.82199 6.70348,-7.17273 10.52683,-8.83939 20.26077,-8.83205 6.59891,0.005 21.64089,-2.659766 33.4266,-5.921649 35.26949,-9.761389 40.64729,-11.048009 59.3534,-14.2001 24.16834,-4.072512 87.84551,-24.637226 93.35874,-30.150463 C 522.02,48.662942 524,41.823305 524,35.808302 c 0,-5.981057 1.60714,-12.144736 3.57143,-13.697066 5.2986,-4.187367 38.5386,-16.6844078 55.72777,-20.9516384 l 15.01351,-3.7271142 9.4946,10.3657119 c 10.66854,11.6473207 21.41563,15.5717367 30.0252,10.9640287 12.28874,-6.576729 23.43069,3.009408 38.68174,33.280364 5.56103,11.03776 9.58338,15.441246 15.36643,16.822534 12.03035,2.87346 14.97646,6.535246 14.97646,18.614603 0,6.114623 1.2682,13.350055 2.81823,16.078725 5.27868,9.2927 17.18237,38.51847 17.00291,41.74532 -0.0983,1.76876 -6.44151,-9.96266 -14.09585,-26.0698 -14.94235,-31.443408 -16.7374,-32.793271 -32.29575,-24.285714 -5.02911,2.75 -59.28668,21.714284 -120.5724,42.142854 -61.28571,20.42858 -111.30848,38.42858 -111.16174,40 0.14686,1.57143 8.28983,7.49604 18.09571,13.16581 34.63752,20.02743 54.4946,42.1168 54.4946,60.62077 0,3.77926 2.65498,10.24664 5.89995,14.37195 8.65285,11.00032 0.0486,19.59433 -8.865,8.85431 -2.0156,-2.42866 -5.33172,-3.77607 -7.36912,-2.99424 -2.24303,0.86073 -7.67,-5.10665 -13.757,-15.12691 -25.94637,-42.71232 -69.55505,-67.37208 -118.76597,-67.15953 -27.89897,0.12052 -46.81663,5.79964 -85.90594,25.78922 -37.17023,19.00818 -56.33155,40.94815 -62.99442,72.12945 -4.52676,21.18463 -9.59776,26.54469 -7.15004,7.55763 1.00826,-7.82106 5.69722,-22.47734 10.41991,-32.56951 4.72269,-10.09216 7.87529,-19.06081 7.00577,-19.93033 -2.15133,-2.15133 -21.606,3.3834 -108.51814,30.87277 -40.857139,12.92267 -81.08597,24.2099 -89.397401,25.08273 l -15.111692,1.58694 6.313434,6.72034 c 3.472389,3.6962 5.634435,7.39935 4.804549,8.22923 -0.829886,0.82989 -3.030549,-0.3246 -4.890363,-2.56554 z M 73.763126,192.90693 c 7.201708,-3.08701 13.094014,-6.35955 13.094014,-7.27232 0,-3.91797 -38.70114,5.61486 -41.557397,10.23638 -2.894657,4.68365 14.95946,2.8244 28.463383,-2.96406 z M 336.4716,185.87417 c 14.87245,-5.38361 33.25765,-10.63396 40.85603,-11.66745 21.36311,-2.90569 72.80654,-19.17105 74.48745,-23.5514 1.66757,-4.34564 -17.92451,-50.34116 -23.3672,-54.858189 -4.35863,-3.617337 -115.74057,29.653479 -120.67854,36.047799 -1.85543,2.40265 -4.13494,12.92308 -5.06557,23.37874 -0.93066,10.45567 -2.18309,23.83173 -2.7832,29.72459 -1.39572,13.70536 1.07437,13.76793 36.55103,0.92591 z m 209.23348,-61.86171 c 61.50397,-20.17023 61.6556,-20.24036 59.7952,-27.652769 -1.77534,-7.073589 -21.5954,-52.12572 -22.93197,-52.12572 -7.89863,0 -124.65668,36.469234 -128.32526,40.082234 -4.31714,4.251786 20.95678,59.917765 27.20438,59.917765 1.42851,0 30.34445,-9.09968 64.25765,-20.22151 z M 264,129.94826 c 0,-1.57143 -1.85269,-2.85715 -4.1171,-2.85715 -2.2644,0 -4.91171,1.28572 -5.8829,2.85715 -0.9712,1.57143 0.88149,2.85714 4.11709,2.85714 3.2356,0 5.88291,-1.28571 5.88291,-2.85714 z m 66.42857,-21.42857 c -1.05443,-4.21767 -10.03286,-3.47286 -11.50872,0.9547 -0.87111,2.61333 0.85072,3.51167 5.4762,2.85714 3.71075,-0.52508 6.42538,-2.24042 6.03252,-3.81184 z M 698.28571,76.922494 c 0,-4.848343 -7.36257,-5.527398 -10.19743,-0.940515 -2.15383,3.484995 4.26303,8.725266 7.91815,6.466277 1.2536,-0.774768 2.27928,-3.26136 2.27928,-5.525762 z M 672.56917,63.519685 c -0.003,-5.267623 -16.05612,-38.27822 -19.71363,-40.538697 -5.66434,-3.500755 -3.34791,7.9495 5.31111,26.252983 7.76512,16.41398 14.40803,23.003011 14.40252,14.285714 z M 539.53291,41.670274 c 2.18894,-3.54178 -1.41091,-20.293446 -4.36097,-20.293446 -4.5156,0 -7.666,9.930011 -5.21211,16.428571 2.50348,6.629935 6.79371,8.361997 9.57308,3.864875 z"
       id="path408"
       inkscape:connector-curvature="0"
       transform="scale(0.26458333)" />
    <path
       style="opacity:1;fill:#000080;fill-opacity:1;fill-rule:nonzero;stroke:none;stroke-width:18.5714283;stroke-linecap:square;stroke-linejoin:round;stroke-miterlimit:4;stroke-dasharray:none;stroke-dashoffset:0;stroke-opacity:1"
       d="m 573.42596,105.38341 c 9.20967,-4.99332 8.92631,-7.270342 -4.14874,-33.338507 l -8.26328,-16.474782 7.39331,-2.810932 c 4.06633,-1.546013 8.02002,-2.810933 8.786,-2.810933 1.92883,0 17.53519,34.0904 19.66296,42.95158 1.5763,6.56458 0.46202,7.694584 -11.98776,12.156994 -16.78313,6.01561 -22.22158,6.17083 -11.44249,0.32658 z"
       id="path410"
       inkscape:connector-curvature="0"
       transform="scale(0.26458333)" />
    <path
       style="opacity:1;fill:#000080;fill-opacity:1;fill-rule:nonzero;stroke:none;stroke-width:18.5714283;stroke-linecap:square;stroke-linejoin:round;stroke-miterlimit:4;stroke-dasharray:none;stroke-dashoffset:0;stroke-opacity:1"
       d=""
       id="path412"
       inkscape:connector-curvature="0"
       transform="scale(0.26458333)" />
    <path
       style="opacity:1;fill:#000080;fill-opacity:1;fill-rule:nonzero;stroke:none;stroke-width:18.5714283;stroke-linecap:square;stroke-linejoin:round;stroke-miterlimit:4;stroke-dasharray:none;stroke-dashoffset:0;stroke-opacity:1"
       d="m 308.03078,165.23872 c 1.10796,-12.33833 3.77079,-25.13171 5.91741,-28.42974 3.39197,-5.21137 28.8792,-15.2923 30.98379,-12.25498 1.20204,1.73477 7.71446,16.95522 13.49277,31.53452 l 5.26458,13.28313 -24.84466,8.07275 c -13.66457,4.44001 -26.641,8.5576 -28.83651,9.15019 -3.29207,0.88857 -3.63871,-2.85512 -1.97738,-21.35587 z"
       id="path414"
       inkscape:connector-curvature="0"
       transform="scale(0.26458333)" />
    <path
       style="opacity:1;fill:#000080;fill-opacity:1;fill-rule:nonzero;stroke:none;stroke-width:18.5714283;stroke-linecap:square;stroke-linejoin:round;stroke-miterlimit:4;stroke-dasharray:none;stroke-dashoffset:0;stroke-opacity:1"
       d="m 234.34587,290.51869 c 6.93365,-37.02721 30.07942,-58.30825 93.56727,-86.02907 l 28.19887,-12.31252 27.51542,2.0569 c 31.62711,2.36426 50.30858,8.50404 72.0133,23.66761 13.50284,9.43349 36.87669,35.55863 36.9163,41.26164 0.008,1.13968 -3.28407,0.81807 -7.31553,-0.71469 -8.78237,-3.33905 -16.33469,0.001 -22.99867,10.17165 -6.43206,9.81655 -17.71757,9.13339 -31.42139,-1.90208 -17.47898,-14.07555 -31.85708,-19.49415 -51.91321,-19.56427 -20.61936,-0.0721 -32.62858,4.1731 -46.6622,16.49477 -7.95568,6.98518 -16.27674,10.13519 -42.19798,15.97439 -17.7585,4.0004 -38.0017,10.4668 -44.98488,14.36977 l -12.6967,7.09632 z"
       id="path416"
       inkscape:connector-curvature="0"
       transform="scale(0.26458333)" />
    <path
       style="opacity:1;fill:#000080;fill-opacity:1;fill-rule:nonzero;stroke:none;stroke-width:18.5714283;stroke-linecap:square;stroke-linejoin:round;stroke-miterlimit:4;stroke-dasharray:none;stroke-dashoffset:0;stroke-opacity:1"
       d="m 212.9605,539.94826 c -0.91052,-27.84695 -6.20089,-33.20226 -21.16871,-21.42857 -4.47483,3.5199 -11.59081,5.71428 -18.53038,5.71428 -6.19622,0 -15.20771,1.37414 -20.02553,3.05364 -11.80126,4.11394 -24.61941,-2.46753 -28.939,-14.85871 -3.65792,-10.49312 -2.70116,-13.10598 2.50296,-6.8354 4.94254,5.9554 6.61743,5.73508 42.91444,-5.64524 17.542,-5.5 34.24572,-10 37.11936,-10 4.48159,0 5.50273,3.35305 7.17845,23.57143 1.0745,12.96428 1.38256,27.42857 0.68458,32.14285 -0.87839,5.93275 -1.41286,4.17364 -1.73617,-5.71428 z"
       id="path418"
       inkscape:connector-curvature="0"
       transform="scale(0.26458333)" />
    <path
       style="opacity:1;fill:#000080;fill-opacity:1;fill-rule:nonzero;stroke:none;stroke-width:18.5714283;stroke-linecap:square;stroke-linejoin:round;stroke-miterlimit:4;stroke-dasharray:none;stroke-dashoffset:0;stroke-opacity:1"
       d="m 513.39701,616.11999 c -7.84734,-8.0708 -14.67522,-9.40113 -23.86371,-4.64957 -7.51211,3.88466 -8.39045,3.88254 -8.39045,-0.0202 0,-2.74493 -2.64497,-4.35909 -7.14285,-4.35909 -5.14991,0 -7.14286,-1.53741 -7.14286,-5.5102 0,-7.92154 -7.70482,-14.4898 -16.9971,-14.4898 -10.0442,0 -15.19844,-5.94933 -12.94225,-14.93871 1.13125,-4.50725 0.17954,-8.20501 -2.73412,-10.62314 -6.47991,-5.37784 -5.62613,-7.15764 5.33486,-11.12119 9.36231,-3.38546 27.33861,-20.58822 27.33861,-26.16222 0,-1.45553 -2.81387,-5.26793 -6.25303,-8.47201 l -6.25304,-5.82558 h 7.78213 c 7.00329,0 7.46296,-0.59638 4.59298,-5.95899 -4.47408,-8.3599 -2.84806,-8.74473 10.91433,-2.58313 7.849,3.51411 12.07377,7.2418 12.07377,10.65321 0,2.88619 3.84465,9.69905 8.54365,15.13969 7.89203,9.1376 8.83972,9.51411 12.42537,4.93649 4.35853,-5.56433 7.60241,-3.8562 7.60241,4.0032 0,2.88096 1.31873,5.2381 2.93052,5.2381 1.67252,0 1.03851,3.65873 -1.47694,8.52306 -4.11441,7.9564 -4.0243,8.90621 1.3552,14.28572 4.02974,4.02973 9.53706,5.76265 18.31411,5.76265 14.61073,0 16.01997,2.12264 16.01997,24.12978 v 15.091 h -11.56752 c -8.13431,0 -13.25528,1.81161 -17.25415,6.10389 -6.89164,7.39731 -6.84396,7.39425 -13.20989,0.84706 z m -29.16928,-19.30328 c 3.30422,-3.98134 2.92373,-4.43463 -2.99779,-3.57143 -3.73029,0.54378 -7.31163,2.59583 -7.95853,4.56012 -1.69292,5.1405 6.48176,4.40282 10.95632,-0.98869 z"
       id="path420"
       inkscape:connector-curvature="0"
       transform="scale(0.26458333)" />
    <path
       style="opacity:1;fill:#000080;fill-opacity:1;fill-rule:nonzero;stroke:none;stroke-width:18.5714283;stroke-linecap:square;stroke-linejoin:round;stroke-miterlimit:4;stroke-dasharray:none;stroke-dashoffset:0;stroke-opacity:1"
       d=""
       id="path424"
       inkscape:connector-curvature="0"
       transform="scale(0.26458333)" />
    <path
       style="opacity:1;fill:#000080;fill-opacity:1;fill-rule:nonzero;stroke:none;stroke-width:18.5714283;stroke-linecap:square;stroke-linejoin:round;stroke-miterlimit:4;stroke-dasharray:none;stroke-dashoffset:0;stroke-opacity:1"
       d="m 401.14285,484.95901 c 0,-3.69214 3.73736,-8.07999 10.05914,-11.80993 6.78127,-4.00104 10.61642,-8.72147 11.76934,-14.48608 1.42427,-7.12134 2.5584,-8.09711 6.7832,-5.83606 2.79014,1.49324 6.41976,6.57832 8.0658,11.30018 2.60038,7.45943 2.18177,9.15327 -3.19235,12.91745 -3.40184,2.38274 -9.97641,4.33226 -14.61017,4.33226 -4.63376,0 -10.77625,2.12784 -13.64998,4.72854 -4.90092,4.43526 -5.22498,4.36416 -5.22498,-1.14636 z"
       id="path426"
       inkscape:connector-curvature="0"
       transform="scale(0.26458333)" />
    <path
       style="opacity:1;fill:#000080;fill-opacity:1;fill-rule:nonzero;stroke:none;stroke-width:18.5714283;stroke-linecap:square;stroke-linejoin:round;stroke-miterlimit:4;stroke-dasharray:none;stroke-dashoffset:0;stroke-opacity:1"
       d="m 281.14285,578.25165 c 0,-1.08776 1.99213,-2.74219 4.42695,-3.67652 3.76201,-1.44362 3.28073,-3.65464 -3.20427,-14.72046 -4.19717,-7.16193 -6.95698,-13.69592 -6.13291,-14.51999 0.82407,-0.82407 8.77502,-3.39852 17.66879,-5.721 16.18824,-4.22734 27.24144,-3.31135 27.24144,2.25752 0,2.76349 8.1434,14.18813 18.5319,25.999 6.41527,7.29364 -0.17466,9.13904 -18.5573,5.19667 -18.60561,-3.99019 -19.9746,-3.93163 -19.9746,0.85451 0,2.41359 -3.92522,4.43138 -10,5.14057 -5.5,0.6421 -10,0.27746 -10,-0.8103 z"
       id="path428"
       inkscape:connector-curvature="0"
       transform="scale(0.26458333)" />
    <path
       style="opacity:1;fill:#000080;fill-opacity:1;fill-rule:nonzero;stroke:none;stroke-width:18.5714283;stroke-linecap:square;stroke-linejoin:round;stroke-miterlimit:4;stroke-dasharray:none;stroke-dashoffset:0;stroke-opacity:1"
       d="m 262.42147,627.42948 c -0.59294,-0.59962 2.73394,-4.65117 7.39308,-9.00346 5.51663,-5.1533 8.48642,-10.75207 8.51491,-16.05265 0.0339,-6.30521 0.66788,-7.17363 2.81339,-3.85368 1.52331,2.35714 2.78933,7.16005 2.8134,10.67314 0.0355,5.18724 2.49447,7.00454 13.08642,9.67162 7.17346,1.8063 11.99489,4.29609 10.71428,5.53287 -2.36676,2.28576 -43.36218,5.02764 -45.33548,3.03216 z"
       id="path430"
       inkscape:connector-curvature="0"
       transform="scale(0.26458333)" />
    <path
       style="opacity:1;fill:#000080;fill-opacity:1;fill-rule:nonzero;stroke:none;stroke-width:18.5714283;stroke-linecap:square;stroke-linejoin:round;stroke-miterlimit:4;stroke-dasharray:none;stroke-dashoffset:0;stroke-opacity:1"
       d="m 257.4949,575.66254 c -2.65298,-9.53068 -2.60471,-25.72528 0.0765,-25.67053 3.98608,0.0814 10.96617,5.57995 7.14285,5.62678 -1.96428,0.0241 -3.57143,1.32947 -3.57143,2.9009 0,1.57142 1.92858,2.85714 4.28572,2.85714 5.38427,0 5.57772,4.68624 0.31848,7.71517 -2.18198,1.25665 -4.48397,4.85626 -5.11554,7.99911 -1.02069,5.07922 -1.36929,4.92046 -3.13661,-1.42857 z"
       id="path432"
       inkscape:connector-curvature="0"
       transform="scale(0.26458333)" />
    <path
       style="opacity:1;fill:#000080;fill-opacity:1;fill-rule:nonzero;stroke:none;stroke-width:18.5714283;stroke-linecap:square;stroke-linejoin:round;stroke-miterlimit:4;stroke-dasharray:none;stroke-dashoffset:0;stroke-opacity:1"
       d="m 668.81733,938.47235 c -14.72721,-4.42069 -16.59062,-7.91963 -8.51727,-15.99299 13.87059,-13.87059 34.59289,-16.91234 42.10935,-6.18109 7.11996,10.16517 5.50526,16.35685 -5.4605,20.93864 -10.96708,4.58234 -16.21398,4.81276 -28.13158,1.23544 z"
       id="path434"
       inkscape:connector-curvature="0"
       transform="scale(0.26458333)" />
    <path
       style="opacity:1;fill:#000080;fill-opacity:1;fill-rule:nonzero;stroke:none;stroke-width:18.5714283;stroke-linecap:square;stroke-linejoin:round;stroke-miterlimit:4;stroke-dasharray:none;stroke-dashoffset:0;stroke-opacity:1"
       d="m 472.34589,119.53387 c -9.69693,-21.515645 -11.68341,-32.571428 -6.20109,-34.512316 2.3056,-0.816243 2.94395,0.375182 1.79927,3.358172 -0.99168,2.584263 2.23662,12.770194 7.31994,23.095884 10.65662,21.64667 10.78686,21.67882 45.24623,11.16806 13.17139,-4.01752 25.31394,-6.84926 26.98346,-6.29275 1.66951,0.5565 -10.9693,5.30269 -28.08626,10.54708 -17.11695,5.24439 -32.72209,10.13965 -34.6781,10.87837 -2.19658,0.82958 -6.93142,-6.14547 -12.38345,-18.2425 z"
       id="path436"
       inkscape:connector-curvature="0"
       transform="scale(0.26458333)" />
    <path
       style="opacity:1;fill:#000080;fill-opacity:1;fill-rule:nonzero;stroke:none;stroke-width:18.5714283;stroke-linecap:square;stroke-linejoin:round;stroke-miterlimit:4;stroke-dasharray:none;stroke-dashoffset:0;stroke-opacity:1"
       d="m 656.46811,1087.0911 c 1.29267,-13.0518 5.23277,-25.6586 13.25704,-42.4172 6.27974,-13.1152 11.4177,-26.1563 11.4177,-28.9801 0,-5.6892 -5.43068,-8.6027 -16.03525,-8.6027 -6.95367,0 -25.39332,-17.46261 -25.39332,-24.04784 0,-1.76725 -7.11036,-3.46446 -16.57429,-3.95622 l -16.5743,-0.86121 -12.97618,14.43264 c -7.13691,7.93793 -14.46419,14.43163 -16.28285,14.43043 -6.57517,0 -38.16535,-16.78205 -64.73523,-34.38089 -14.92858,-9.88809 -36.14286,-22.34248 -47.14286,-27.67643 -14.55001,-7.05536 -17.27501,-9.13146 -10,-7.61874 5.5,1.14364 16.10749,2.28945 23.5722,2.54625 15.2724,0.52539 14.25721,-0.11595 18.03007,11.38998 3.47124,10.58607 10.67745,12.41085 14.65345,3.71059 3.5961,-7.86899 29.6615,-37.28942 31.45132,-35.4996 0.69466,0.69466 -1.27421,6.23641 -4.37527,12.31499 -10.93689,21.43808 -10.3894,22.32372 13.17192,21.30732 14.73126,-0.63549 24.97026,0.60658 35.13658,4.26234 15.70792,5.64849 19.89107,4.52956 28.85179,-7.7174 7.22638,-9.87657 13.79365,-37.95959 13.79365,-58.98453 V 872.73787 L 619,874.43451 c -9.36207,1.48252 -12.15665,0.44103 -22.14286,-8.25225 -6.28571,-5.4719 -10.51019,-10.88858 -9.38772,-12.03707 5.91881,-6.05602 80.81629,-3.51636 80.81629,2.74036 0,1.45837 -3.72301,3.64727 -8.27336,4.86422 -10.12054,2.70665 -24.58378,16.06931 -24.58378,22.71306 0,7.06408 5.72101,8.34257 37.33146,8.34257 27.19428,0 28.65331,0.32223 37.5822,8.30019 7.60986,6.79941 9.2321,10.28651 8.97193,19.28572 -0.44987,15.5608 -23.73958,85.94939 -39.08553,118.12839 -7.11934,14.9286 -15.0835,35.5 -17.69813,45.7143 -6.2967,24.5986 -8.30964,25.5473 -6.06239,2.8571 z m -69.61486,-97.13453 c 8.16193,-17.42606 5.31586,-21.85177 -5.94652,-9.24698 -7.96341,8.9126 -10.5251,17.52506 -6.43054,21.61961 3.74488,3.7449 5.78163,1.7089 12.37706,-12.37263 z m 88.57532,0.0461 c 0,-3.62799 -2.52024,-6.29239 -7.02025,-7.42182 -11.63748,-2.92082 -14.79157,-0.15871 -7.80118,6.83167 7.78745,7.78746 14.82143,8.06753 14.82143,0.59015 z m -35.7224,-48.60029 c 1.9471,-6.13478 -0.11775,-11.45414 -4.44622,-11.45414 -1.47869,0 -2.68852,3.85714 -2.68852,8.57143 0,9.69942 4.40616,11.47968 7.13474,2.88271 z m 63.57954,-4.58851 c 8.01098,-5.15935 8.17734,-12.44324 0.50692,-22.19461 -9.18395,-11.67549 -30.21836,-8.87407 -47.64978,6.34613 -8.07216,7.04819 -8.11322,10.73734 -0.16685,14.99011 16.54782,8.85613 34.38887,9.17983 47.30971,0.85837 z"
       id="path438"
       inkscape:connector-curvature="0"
       transform="scale(0.26458333)" />
    <path
       style="opacity:1;fill:#000080;fill-opacity:1;fill-rule:nonzero;stroke:none;stroke-width:18.5714283;stroke-linecap:square;stroke-linejoin:round;stroke-miterlimit:4;stroke-dasharray:none;stroke-dashoffset:0;stroke-opacity:1"
       d="m 581.13835,704.23397 c -0.25688,-68.35714 -1.387,-184.07143 -2.51138,-257.14286 -2.2777,-148.02394 -1.71124,-144.00233 -22.22228,-157.76706 -9.67476,-6.49262 -12.81658,-10.94757 -16.91906,-23.99041 -10.02014,-31.85666 -32.54293,-59.04598 -64.98675,-78.45147 l -16.21595,-9.69919 113.57282,-37.53159 c 62.46505,-20.64238 115.83192,-38.48267 118.59304,-39.64509 4.19327,-1.765353 7.13551,2.444 17.86141,25.55361 26.64664,57.4118 69.97551,160.53482 69.97551,166.54218 0,5.62656 -6.19971,8.23744 -62.14286,26.17013 -94.00915,30.13483 -116.22636,36.77281 -118.57142,35.42632 -1.17858,-0.67671 -2.14286,-4.90649 -2.14286,-9.39951 0,-10.48746 -2.74775,-17.61276 -6.01367,-15.59431 -3.74522,2.31467 -3.26956,329.94517 0.51897,357.46537 4.14728,30.12622 11.25198,45.8946 21.71546,48.19594 14.18612,3.12008 15.20781,3.84883 15.20781,10.84763 0,9.24968 -7.89236,31.10583 -12.22698,33.85994 -1.91802,1.21866 -7.66588,2.23543 -12.77302,2.25949 -9.00089,0.0423 -9.28801,0.4162 -9.36064,12.1866 -0.0412,6.67857 -2.50856,17.28571 -5.48301,23.57142 -5.40546,11.42303 -5.4083,11.36835 -5.87514,-112.85714 z"
       id="path440"
       inkscape:connector-curvature="0"
       transform="scale(0.26458333)" />
    <path
       style="opacity:1;fill:#000080;fill-opacity:1;fill-rule:nonzero;stroke:none;stroke-width:18.5714283;stroke-linecap:square;stroke-linejoin:round;stroke-miterlimit:4;stroke-dasharray:none;stroke-dashoffset:0;stroke-opacity:1"
       d="m 589.71428,822.72937 c 0,-0.89997 2.04236,-5.5858 4.53858,-10.41294 2.95358,-5.7116 3.91723,-12.08866 2.75939,-18.26049 -1.76956,-9.43257 -1.71373,-9.48863 10.32171,-10.3672 l 12.10089,-0.88334 7.09786,-20.13083 c 8.42656,-23.89928 7.17021,-29.86917 -6.28594,-29.86917 -12.1906,0 -18.12087,-6.42577 -24.12554,-26.14126 -4.06811,-13.35711 -4.71246,-37.83388 -5.10331,-193.85874 -0.24603,-98.21429 0.0768,-173.10714 0.71737,-166.42857 0.85032,8.86524 2.46996,12.23232 6.00042,12.47429 4.36614,0.29925 4.35019,0.45831 -0.16428,1.63807 -4.68433,1.22414 -5,11.08315 -5,156.16044 v 154.8538 l 8.77944,10.651 c 8.58122,10.41051 9.22247,10.65097 28.4028,10.65097 10.79286,0 20.45709,1.349 21.47608,2.99774 6.17562,9.99237 -19.03033,79.24355 -38.92741,106.94975 -8.28186,11.53225 -22.58806,24.18442 -22.58806,19.97648 z"
       id="path442"
       inkscape:connector-curvature="0"
       transform="scale(0.26458333)" />
    <path
       style="opacity:1;fill:#000080;fill-opacity:1;fill-rule:nonzero;stroke:none;stroke-width:18.5714283;stroke-linecap:square;stroke-linejoin:round;stroke-miterlimit:4;stroke-dasharray:none;stroke-dashoffset:0;stroke-opacity:1"
       d="m 197.11165,894.41988 c -2.99808,-22.83536 -5.57584,-28.84148 -20.61959,-48.04305 l -12.87121,-16.42857 8.04672,-0.0628 c 12.41512,-0.0968 30.79226,-9.72115 38.83917,-20.34055 5.4963,-7.2534 7.93834,-15.17791 10.00105,-32.45385 1.73424,-14.52498 3.00528,-19.21182 3.48676,-12.85714 l 0.75768,10 2.10491,-10 c 1.51811,-7.21222 2.21668,-2.43318 2.50586,17.14286 0.22051,14.92857 1.13804,34.21428 2.03892,42.85714 1.07803,10.34237 0.70625,14.39392 -1.08758,11.85187 -2.17223,-3.07829 -3.66987,-2.51421 -7.37709,2.77859 -2.55834,3.65255 -4.65154,8.8897 -4.65154,11.63809 0,2.7484 -3.31283,12.42661 -7.36185,21.50713 -4.04902,9.08052 -8.31227,21.65289 -9.47389,27.93861 l -2.11203,11.42857 z"
       id="path444"
       inkscape:connector-curvature="0"
       transform="scale(0.26458333)" />
    <path
       style="opacity:1;fill:#000080;fill-opacity:1;fill-rule:nonzero;stroke:none;stroke-width:18.5714283;stroke-linecap:square;stroke-linejoin:round;stroke-miterlimit:4;stroke-dasharray:none;stroke-dashoffset:0;stroke-opacity:1"
       d="m 91.022993,1097.2449 c -4.081431,-9.7682 -13.855338,-67.131 -11.790173,-69.1961 3.102029,-3.1021 27.62432,61.1206 27.62432,72.3467 0,10.9351 -10.850906,8.776 -15.834147,-3.1506 z"
       id="path446"
       inkscape:connector-curvature="0"
       transform="scale(0.26458333)" />
  </g>
</svg>
